<svg width="995" height="611" viewBox="0 0 995 611" fill="none" xmlns="http://www.w3.org/2000/svg">
<path d="M6.5566e-08 611L0 331.137C1.62732 331.137 -0.000247955 331.137 16.01 331.137C16.01 326.542 16.01 310.69 16.01 305.405H94.4501L94.4501 331.137H114.34L114.34 401.277H153.395C153.395 391.923 153.395 382.503 153.395 373.116C153.198 346.629 152.902 320.109 152.738 293.589C152.738 280.461 153.034 267.332 152.738 254.204C152.738 248.755 156.551 248.985 160.003 248.952C168.77 248.799 177.46 248.875 186.073 249.182C190.018 249.346 191.761 248.525 191.761 244.488C191.761 216.729 190.907 188.791 191.498 161.056C191.498 148.486 202.501 153.28 211.288 151.57C211.288 138.967 211.749 126.527 211.288 114.154C210.565 99.2854 212.538 85.8286 227.463 77.3934C232.822 74.3738 230.751 69.9101 230.751 65.8074C230.751 60.2605 230.751 54.5167 239.923 55.4029C239.923 41.585 239.923 27.964 239.923 14.343C239.762 11.1629 239.916 7.97467 240.383 4.82478C240.745 3.08524 242.586 1.54262 243.671 0C245.216 1.70672 247.78 3.28219 248.142 5.15302C248.542 9.03535 248.597 12.9455 248.306 16.8375V54.6152C257.741 55.9281 260.042 61.1795 257.215 74.9646C277.861 83.9905 277.828 101.222 276.414 119.175C275.894 128.966 276.048 141.801 276.874 151.57C296.172 151.57 296.172 148.99 296.172 159.826C295.843 186.805 296.172 220.627 296.172 248.493H334.801V319.978H368.465C368.465 251.4 368.367 182.83 368.169 114.252C368.169 99.0885 368.366 83.9359 368.761 68.7942C370.371 60.4915 372.467 59.7081 379.445 64.1006C410.789 87.0162 441.649 110.519 472.482 134.109C485.86 145.329 498.028 149.991 497.599 170.147C496.889 198.841 498.033 227.555 497.237 256.238C497.237 261.162 499.177 261.982 503.385 261.949C512.261 261.949 521.104 261.949 532.249 261.949V227.585C532.249 199.961 530.755 171.886 531.328 144.382C531.328 133.847 532.808 132.665 544.216 132.501C544.479 130.006 544.61 127.414 545.037 124.854C545.333 123.245 545.793 120.39 546.615 120.258C554.571 118.88 553.19 112.348 554.768 107.589C562.856 85.2378 581.463 76.3759 603.522 78.3124C615.982 79.3955 625.68 87.2071 632.091 97.3162C635.904 103.29 637.811 110.445 640.967 117.862C649.12 117.698 647.739 124.985 648.134 130.991C648.627 131.385 648.989 131.943 649.416 131.976C660.758 133.387 660.988 133.354 660.955 145.104C660.758 190.661 660.331 236.25 660.166 281.839C660.166 288.863 660.923 295.887 661.449 304.815C672.462 304.815 683.606 305.011 694.685 304.552C696.099 304.552 698.466 300.942 698.532 298.939C698.959 285.811 698.893 272.912 698.992 259.882C698.992 249.74 699.189 239.598 699.156 229.489C699.156 214.686 698.959 199.949 698.926 185.147C698.926 175.3 699.551 174.184 709.939 174.644C715.232 174.874 716.712 174.152 716.515 168.966C716.054 162.401 716.103 159.021 716.235 152.456C715.101 143.03 717.649 144.251 722.596 144.251C732.094 144.707 741.685 144.579 751.198 144.579C751.198 134.733 751.198 119.438 751.395 109.657C751.333 107.262 751.735 104.877 752.578 102.633C754.858 100.167 759.043 100.771 759.515 104.504C759.515 117.863 759.088 131.218 759.088 144.579C769.147 144.579 778.386 144.973 787.591 144.579C794.166 144.218 794.988 147.566 794.988 152.227C794.988 159.513 794.988 166.8 794.988 174.25C796.927 174.578 798.9 175.005 800.905 175.235C811.885 176.548 811.82 176.548 811.721 186.919C811.721 259.707 812.083 332.494 812.083 405.281H840.125C840.125 389.035 840.421 373.182 839.764 357.362C839.764 355.557 834.372 353.916 829.901 351.29L911.563 261.293L995 353.194C982.606 351.979 982.54 357.46 982.639 365.075C983.099 397.667 982.639 430.259 982.639 462.883C982.639 487.601 981.89 611 981.89 611C981.89 611 42.5 611 6.5566e-08 611Z" fill="#113449"/>
<rect x="863.316" y="362.457" width="18.443" height="27.1113" fill="#C4C4C4"/>
<rect x="863.316" y="397.159" width="18.443" height="27.1113" fill="#C4C4C4"/>
<rect x="863.316" y="431.861" width="18.443" height="27.1113" fill="#C4C4C4"/>
<rect x="863.316" y="467.648" width="18.443" height="27.1113" fill="#C4C4C4"/>
<rect x="890.438" y="362.457" width="18.443" height="27.1113" fill="#C4C4C4"/>
<rect x="890.438" y="397.159" width="18.443" height="27.1113" fill="#C4C4C4"/>
<rect x="890.438" y="431.861" width="18.443" height="27.1113" fill="#C4C4C4"/>
<rect x="890.438" y="467.648" width="18.443" height="27.1113" fill="#C4C4C4"/>
<rect x="917.56" y="362.457" width="18.443" height="27.1113" fill="#C4C4C4"/>
<rect x="944.682" y="362.457" width="18.443" height="27.1113" fill="#C4C4C4"/>
<rect x="917.56" y="397.159" width="18.443" height="27.1113" fill="#C4C4C4"/>
<rect x="944.682" y="397.159" width="18.443" height="27.1113" fill="#C4C4C4"/>
<rect x="917.56" y="431.861" width="18.443" height="27.1113" fill="#C4C4C4"/>
<rect x="944.682" y="431.861" width="18.443" height="27.1113" fill="#C4C4C4"/>
<rect x="917.56" y="467.648" width="18.443" height="27.1113" fill="#C4C4C4"/>
<rect x="944.682" y="467.648" width="18.443" height="27.1113" fill="#C4C4C4"/>
<rect width="11.9337" height="16.2668" transform="matrix(-1 0 0 1 737.469 194.365)" fill="#C4C4C4"/>
<rect width="11.9337" height="16.2668" transform="matrix(-1 0 0 1 755.912 194.365)" fill="#C4C4C4"/>
<rect width="11.9337" height="16.2668" transform="matrix(-1 0 0 1 774.355 194.365)" fill="#F5F5C9" fill-opacity="0.8"/>
<rect width="11.9337" height="16.2668" transform="matrix(-1 0 0 1 792.798 194.365)" fill="#C4C4C4"/>
<rect width="11.9337" height="16.2668" transform="matrix(-1 0 0 1 737.469 217.139)" fill="#C4C4C4"/>
<rect width="11.9337" height="16.2668" transform="matrix(-1 0 0 1 755.912 217.139)" fill="#C4C4C4"/>
<rect width="11.9337" height="16.2668" transform="matrix(-1 0 0 1 774.355 217.139)" fill="#C4C4C4"/>
<rect width="11.9337" height="16.2668" transform="matrix(-1 0 0 1 792.798 217.139)" fill="#C4C4C4"/>
<rect width="11.9337" height="16.2668" transform="matrix(-1 0 0 1 737.469 239.912)" fill="#C4C4C4"/>
<rect width="11.9337" height="16.2668" transform="matrix(-1 0 0 1 755.912 239.912)" fill="#C4C4C4"/>
<rect width="11.9337" height="16.2668" transform="matrix(-1 0 0 1 774.355 239.912)" fill="#C4C4C4"/>
<rect width="11.9337" height="16.2668" transform="matrix(-1 0 0 1 792.798 239.912)" fill="#C4C4C4"/>
<rect width="11.9337" height="16.2668" transform="matrix(-1 0 0 1 737.469 262.687)" fill="#C4C4C4"/>
<rect width="11.9337" height="16.2668" transform="matrix(-1 0 0 1 755.912 262.687)" fill="#F5F5C9"/>
<rect width="11.9337" height="16.2668" transform="matrix(-1 0 0 1 774.355 262.687)" fill="#C4C4C4"/>
<rect width="11.9337" height="16.2668" transform="matrix(-1 0 0 1 792.798 262.687)" fill="#C4C4C4"/>
<rect width="11.9337" height="16.2668" transform="matrix(-1 0 0 1 737.469 285.459)" fill="#475F6E"/>
<rect width="11.9337" height="16.2668" transform="matrix(-1 0 0 1 755.912 285.459)" fill="#C4C4C4"/>
<rect width="11.9337" height="16.2668" transform="matrix(-1 0 0 1 792.798 285.459)" fill="#C4C4C4"/>
<rect width="11.9337" height="16.2668" transform="matrix(-1 0 0 1 737.469 308.233)" fill="#C4C4C4"/>
<rect width="11.9337" height="16.2668" transform="matrix(-1 0 0 1 755.912 308.233)" fill="#475F6E"/>
<rect width="11.9337" height="16.2668" transform="matrix(-1 0 0 1 774.355 308.233)" fill="#C4C4C4"/>
<rect width="11.9337" height="16.2668" transform="matrix(-1 0 0 1 792.798 308.233)" fill="#475F6E"/>
<rect width="11.9337" height="16.2668" transform="matrix(-1 0 0 1 737.469 331.007)" fill="#5D6976"/>
<rect width="11.9337" height="16.2668" transform="matrix(-1 0 0 1 755.912 331.007)" fill="#F5F5C9"/>
<g filter="url(#filter0_d_91_20)">
<rect width="11.9337" height="16.2668" transform="matrix(-1 0 0 1 774.355 331.007)" fill="#5D6976"/>
</g>
<rect width="11.9337" height="16.2668" transform="matrix(-1 0 0 1 792.798 331.007)" fill="#C4C4C4"/>
<rect width="11.9337" height="16.2668" transform="matrix(-1 0 0 1 737.469 355.949)" fill="#C4C4C4"/>
<rect width="11.9337" height="16.2668" transform="matrix(-1 0 0 1 755.912 355.949)" fill="#C4C4C4"/>
<rect width="11.9337" height="16.2668" transform="matrix(-1 0 0 1 774.355 355.949)" fill="#C4C4C4"/>
<rect width="11.9337" height="16.2668" transform="matrix(-1 0 0 1 792.798 355.949)" fill="#C4C4C4"/>
<rect width="11.9337" height="16.2668" transform="matrix(-1 0 0 1 737.469 378.723)" fill="#C4C4C4"/>
<rect width="11.9337" height="16.2668" transform="matrix(-1 0 0 1 755.912 378.723)" fill="#C4C4C4"/>
<rect width="11.9337" height="16.2668" transform="matrix(-1 0 0 1 774.355 378.723)" fill="#C4C4C4"/>
<rect width="11.9337" height="16.2668" transform="matrix(-1 0 0 1 792.798 378.723)" fill="#C4C4C4"/>
<rect width="11.9337" height="16.2668" transform="matrix(-1 0 0 1 737.469 401.495)" fill="#C4C4C4"/>
<rect width="11.9337" height="16.2668" transform="matrix(-1 0 0 1 755.912 401.495)" fill="#C4C4C4"/>
<rect width="11.9337" height="16.2668" transform="matrix(-1 0 0 1 774.355 401.495)" fill="#C4C4C4"/>
<rect width="11.9337" height="16.2668" transform="matrix(-1 0 0 1 792.798 401.495)" fill="#C4C4C4"/>
<rect width="11.9337" height="16.2668" transform="matrix(-1 0 0 1 737.469 424.269)" fill="#C4C4C4"/>
<rect width="11.9337" height="16.2668" transform="matrix(-1 0 0 1 755.912 424.269)" fill="#B3B496"/>
<rect width="11.9337" height="16.2668" transform="matrix(-1 0 0 1 774.355 424.269)" fill="#C4C4C4"/>
<rect width="11.9337" height="16.2668" transform="matrix(-1 0 0 1 792.798 424.269)" fill="#C4C4C4"/>
<rect width="11.9337" height="16.2668" transform="matrix(-1 0 0 1 737.469 447.043)" fill="#475F6E"/>
<rect width="11.9337" height="16.2668" transform="matrix(-1 0 0 1 755.912 447.043)" fill="#C4C4C4"/>
<rect width="11.9337" height="16.2668" transform="matrix(-1 0 0 1 774.355 447.043)" fill="#475F6E"/>
<rect width="11.9337" height="16.2668" transform="matrix(-1 0 0 1 792.798 447.043)" fill="#C4C4C4"/>
<rect width="11.9337" height="16.2668" transform="matrix(-1 0 0 1 755.912 469.817)" fill="#C4C4C4"/>
<rect width="11.9337" height="16.2668" transform="matrix(-1 0 0 1 774.355 469.817)" fill="#F5F5C9"/>
<rect width="11.9337" height="16.2668" transform="matrix(-1 0 0 1 792.798 469.817)" fill="#F5F5C9"/>
<rect width="11.9337" height="16.2668" transform="matrix(-1 0 0 1 737.469 492.59)" fill="#C4C4C4"/>
<rect width="11.9337" height="16.2668" transform="matrix(-1 0 0 1 755.912 492.59)" fill="#C4C4C4"/>
<rect width="11.9337" height="16.2668" transform="matrix(-1 0 0 1 774.355 492.59)" fill="#C4C4C4"/>
<rect width="11.9337" height="16.2668" transform="matrix(-1 0 0 1 792.798 492.59)" fill="#C4C4C4"/>
<rect width="11.9337" height="16.2668" transform="matrix(-1 0 0 1 221.067 190.031)" fill="#C4C4C4"/>
<rect width="11.9337" height="16.2668" transform="matrix(-1 0 0 1 239.51 190.031)" fill="#C4C4C4"/>
<rect width="11.9337" height="16.2668" transform="matrix(-1 0 0 1 257.953 190.031)" fill="#F5F5C9"/>
<rect width="11.9337" height="16.2668" transform="matrix(-1 0 0 1 276.396 190.031)" fill="#C4C4C4"/>
<rect width="11.9337" height="16.2668" transform="matrix(-1 0 0 1 221.067 212.803)" fill="#C4C4C4"/>
<rect width="11.9337" height="16.2668" transform="matrix(-1 0 0 1 257.953 212.803)" fill="#C4C4C4"/>
<rect width="11.9337" height="16.2668" transform="matrix(-1 0 0 1 221.067 235.577)" fill="#C4C4C4"/>
<rect width="11.9337" height="16.2668" transform="matrix(-1 0 0 1 239.51 235.577)" fill="#C4C4C4"/>
<rect width="11.9337" height="16.2668" transform="matrix(-1 0 0 1 257.953 235.577)" fill="#C4C4C4"/>
<rect width="11.9337" height="16.2668" transform="matrix(-1 0 0 1 276.396 235.577)" fill="#C4C4C4"/>
<rect width="11.9337" height="16.2668" transform="matrix(-1 0 0 1 221.067 258.351)" fill="#C4C4C4"/>
<rect width="11.9337" height="16.2668" transform="matrix(-1 0 0 1 184.181 258.351)" fill="#C4C4C4"/>
<rect width="11.9337" height="16.2668" transform="matrix(-1 0 0 1 184.181 304.982)" fill="#C4C4C4"/>
<rect width="11.9337" height="16.2668" transform="matrix(-1 0 0 1 294.839 397.16)" fill="#C4C4C4"/>
<rect width="11.9337" height="16.2668" transform="matrix(-1 0 0 1 294.839 442.708)" fill="#C4C4C4"/>
<rect width="11.9337" height="16.2668" transform="matrix(-1 0 0 1 239.51 258.351)" fill="#C8C9B1"/>
<rect width="11.9337" height="16.2668" transform="matrix(-1 0 0 1 202.624 258.351)" fill="#F5F5C9"/>
<rect width="11.9337" height="16.2668" transform="matrix(-1 0 0 1 202.624 304.982)" fill="#F5F5C9"/>
<rect width="11.9337" height="16.2668" transform="matrix(-1 0 0 1 313.282 397.16)" fill="#EDEEC1"/>
<rect width="11.9337" height="16.2668" transform="matrix(-1 0 0 1 313.282 442.708)" fill="#D0D1A2"/>
<rect width="11.9337" height="16.2668" transform="matrix(-1 0 0 1 257.953 258.351)" fill="#C4C4C4"/>
<rect width="11.9337" height="16.2668" transform="matrix(-1 0 0 1 294.839 258.351)" fill="#C4C4C4"/>
<rect width="11.9337" height="16.2668" transform="matrix(-1 0 0 1 294.839 303.898)" fill="#C4C4C4"/>
<rect width="11.9337" height="16.2668" transform="matrix(-1 0 0 1 294.839 351.613)" fill="#C4C4C4"/>
<rect width="11.9337" height="16.2668" transform="matrix(-1 0 0 1 294.839 281.124)" fill="#C4C4C4"/>
<rect width="11.9337" height="16.2668" transform="matrix(-1 0 0 1 294.839 326.671)" fill="#C4C4C4"/>
<rect width="11.9337" height="16.2668" transform="matrix(-1 0 0 1 294.839 374.387)" fill="#C4C4C4"/>
<rect width="11.9337" height="16.2668" transform="matrix(-1 0 0 1 276.396 258.351)" fill="#C4C4C4"/>
<rect width="11.9337" height="16.2668" transform="matrix(-1 0 0 1 313.282 258.351)" fill="#C4C4C4"/>
<rect width="11.9337" height="16.2668" transform="matrix(-1 0 0 1 313.282 303.898)" fill="#C4C4C4"/>
<rect width="11.9337" height="16.2668" transform="matrix(-1 0 0 1 313.282 351.613)" fill="#C4C4C4"/>
<rect width="11.9337" height="16.2668" transform="matrix(-1 0 0 1 313.282 281.124)" fill="#C4C4C4"/>
<rect width="11.9337" height="16.2668" transform="matrix(-1 0 0 1 313.282 326.671)" fill="#C4C4C4"/>
<rect width="11.9337" height="16.2668" transform="matrix(-1 0 0 1 313.282 374.387)" fill="#C4C4C4"/>
<rect width="11.9337" height="16.2668" transform="matrix(-1 0 0 1 221.067 281.124)" fill="#475F6E"/>
<rect width="11.9337" height="16.2668" transform="matrix(-1 0 0 1 184.181 281.124)" fill="#5D6976"/>
<rect width="11.9337" height="16.2668" transform="matrix(-1 0 0 1 184.181 327.755)" fill="#C4C4C4"/>
<rect width="11.9337" height="16.2668" transform="matrix(-1 0 0 1 294.839 419.933)" fill="#475F6E"/>
<rect width="11.9337" height="16.2668" transform="matrix(-1 0 0 1 294.839 465.48)" fill="#475F6E"/>
<rect width="11.9337" height="16.2668" transform="matrix(-1 0 0 1 239.51 281.124)" fill="#C4C4C4"/>
<rect width="11.9337" height="16.2668" transform="matrix(-1 0 0 1 202.624 281.124)" fill="#C4C4C4"/>
<rect width="11.9337" height="16.2668" transform="matrix(-1 0 0 1 202.624 327.755)" fill="#C4C4C4"/>
<rect width="11.9337" height="16.2668" transform="matrix(-1 0 0 1 313.282 419.933)" fill="#C4C4C4"/>
<rect width="11.9337" height="16.2668" transform="matrix(-1 0 0 1 313.282 465.48)" fill="#C4C4C4"/>
<rect width="11.9337" height="16.2668" transform="matrix(-1 0 0 1 276.396 281.124)" fill="#C4C4C4"/>
<rect width="11.9337" height="16.2668" transform="matrix(-1 0 0 1 221.067 303.897)" fill="#C4C4C4"/>
<rect width="11.9337" height="16.2668" transform="matrix(-1 0 0 1 239.51 303.897)" fill="#5D6976"/>
<rect width="11.9337" height="16.2668" transform="matrix(-1 0 0 1 257.953 303.897)" fill="#C4C4C4"/>
<rect width="11.9337" height="16.2668" transform="matrix(-1 0 0 1 276.396 303.897)" fill="#475F6E"/>
<rect width="11.9337" height="16.2668" transform="matrix(-1 0 0 1 221.067 326.671)" fill="#C8C9B1"/>
<rect width="11.9337" height="16.2668" transform="matrix(-1 0 0 1 239.51 326.671)" fill="#F5F5C9"/>
<rect width="11.9337" height="16.2668" transform="matrix(-1 0 0 1 257.953 326.671)" fill="#475F6E"/>
<rect width="11.9337" height="16.2668" transform="matrix(-1 0 0 1 276.396 326.671)" fill="#C4C4C4"/>
<rect width="11.9337" height="16.2668" transform="matrix(-1 0 0 1 221.067 351.612)" fill="#C4C4C4"/>
<rect width="11.9337" height="16.2668" transform="matrix(-1 0 0 1 184.181 351.612)" fill="#C4C4C4"/>
<rect width="11.9337" height="16.2668" transform="matrix(-1 0 0 1 184.181 397.159)" fill="#C4C4C4"/>
<rect width="11.9337" height="16.2668" transform="matrix(-1 0 0 1 184.181 374.385)" fill="#C4C4C4"/>
<rect width="11.9337" height="16.2668" transform="matrix(-1 0 0 1 184.181 419.932)" fill="#C4C4C4"/>
<rect width="11.9337" height="16.2668" transform="matrix(-1 0 0 1 184.181 464.395)" fill="#C4C4C4"/>
<rect width="11.9337" height="16.2668" transform="matrix(-1 0 0 1 239.51 351.612)" fill="#C4C4C4"/>
<rect width="11.9337" height="16.2668" transform="matrix(-1 0 0 1 202.624 351.612)" fill="#C4C4C4"/>
<rect width="11.9337" height="16.2668" transform="matrix(-1 0 0 1 202.624 397.159)" fill="#C4C4C4"/>
<rect width="11.9337" height="16.2668" transform="matrix(-1 0 0 1 202.624 374.385)" fill="#C4C4C4"/>
<rect width="11.9337" height="16.2668" transform="matrix(-1 0 0 1 202.624 419.932)" fill="#C4C4C4"/>
<rect width="11.9337" height="16.2668" transform="matrix(-1 0 0 1 202.624 464.395)" fill="#C4C4C4"/>
<rect width="11.9337" height="16.2668" transform="matrix(-1 0 0 1 257.953 351.612)" fill="#C4C4C4"/>
<rect width="11.9337" height="16.2668" transform="matrix(-1 0 0 1 276.396 351.612)" fill="#C4C4C4"/>
<rect width="11.9337" height="16.2668" transform="matrix(-1 0 0 1 221.067 374.386)" fill="#C4C4C4"/>
<rect width="11.9337" height="16.2668" transform="matrix(-1 0 0 1 239.51 374.386)" fill="#C4C4C4"/>
<rect width="11.9337" height="16.2668" transform="matrix(-1 0 0 1 276.396 374.386)" fill="#C4C4C4"/>
<rect width="11.9337" height="16.2668" transform="matrix(-1 0 0 1 221.067 397.16)" fill="#C4C4C4"/>
<rect width="11.9337" height="16.2668" transform="matrix(-1 0 0 1 239.51 397.16)" fill="#C4C4C4"/>
<rect width="11.9337" height="16.2668" transform="matrix(-1 0 0 1 257.953 397.16)" fill="#C4C4C4"/>
<rect width="11.9337" height="16.2668" transform="matrix(-1 0 0 1 276.396 397.16)" fill="#C4C4C4"/>
<rect width="11.9337" height="16.2668" transform="matrix(-1 0 0 1 221.067 419.933)" fill="#C4C4C4"/>
<rect width="11.9337" height="16.2668" transform="matrix(-1 0 0 1 239.51 419.933)" fill="#B3B496"/>
<rect width="11.9337" height="16.2668" transform="matrix(-1 0 0 1 257.953 419.933)" fill="#C4C4C4"/>
<rect width="11.9337" height="16.2668" transform="matrix(-1 0 0 1 276.396 419.933)" fill="#C4C4C4"/>
<rect width="11.9337" height="16.2668" transform="matrix(-1 0 0 1 221.067 442.706)" fill="#5D6976"/>
<rect width="11.9337" height="16.2668" transform="matrix(-1 0 0 1 239.51 442.706)" fill="#C4C4C4"/>
<rect width="11.9337" height="16.2668" transform="matrix(-1 0 0 1 257.953 442.706)" fill="#C4C4C4"/>
<rect width="11.9337" height="16.2668" transform="matrix(-1 0 0 1 276.396 442.706)" fill="#C4C4C4"/>
<rect width="11.9337" height="16.2668" transform="matrix(-1 0 0 1 239.51 465.48)" fill="#C4C4C4"/>
<rect width="11.9337" height="16.2668" transform="matrix(-1 0 0 1 184.181 441.622)" fill="#C4C4C4"/>
<rect width="11.9337" height="16.2668" transform="matrix(-1 0 0 1 257.953 465.48)" fill="#F5F5C9"/>
<rect width="11.9337" height="16.2668" transform="matrix(-1 0 0 1 202.624 441.622)" fill="#F5F5C9"/>
<rect width="11.9337" height="16.2668" transform="matrix(-1 0 0 1 276.396 465.48)" fill="#F5F5C9"/>
<rect width="11.9337" height="16.2668" transform="matrix(-1 0 0 1 294.84 488.253)" fill="#C4C4C4"/>
<rect width="11.9337" height="16.2668" transform="matrix(-1 0 0 1 313.283 488.253)" fill="#C4C4C4"/>
<rect width="11.9337" height="16.2668" transform="matrix(-1 0 0 1 184.182 488.253)" fill="#5D6976"/>
<rect width="11.9337" height="16.2668" transform="matrix(-1 0 0 1 202.625 488.253)" fill="#C4C4C4"/>
<rect width="11.9337" height="16.2668" transform="matrix(-1 0 0 1 221.068 488.253)" fill="#C4C4C4"/>
<rect width="11.9337" height="16.2668" transform="matrix(-1 0 0 1 239.511 488.253)" fill="#C4C4C4"/>
<rect width="11.9337" height="16.2668" transform="matrix(-1 0 0 1 257.954 488.253)" fill="#C4C4C4"/>
<rect width="11.9337" height="16.2668" transform="matrix(-1 0 0 1 276.397 488.253)" fill="#C4C4C4"/>
<rect width="11.9337" height="16.2668" transform="matrix(-1 0 0 1 294.84 512.111)" fill="#C4C4C4"/>
<rect width="11.9337" height="16.2668" transform="matrix(-1 0 0 1 313.283 512.111)" fill="#C4C4C4"/>
<rect width="11.9337" height="16.2668" transform="matrix(-1 0 0 1 184.182 512.111)" fill="#5D6976"/>
<rect width="11.9337" height="16.2668" transform="matrix(-1 0 0 1 202.625 512.111)" fill="#C4C4C4"/>
<rect width="11.9337" height="16.2668" transform="matrix(-1 0 0 1 221.068 512.111)" fill="#C4C4C4"/>
<rect width="11.9337" height="16.2668" transform="matrix(-1 0 0 1 239.511 512.111)" fill="#C4C4C4"/>
<rect width="11.9337" height="16.2668" transform="matrix(-1 0 0 1 257.954 512.111)" fill="#C4C4C4"/>
<rect width="11.9337" height="16.2668" transform="matrix(-1 0 0 1 276.397 512.111)" fill="#C4C4C4"/>
<rect width="11.9337" height="28.1957" transform="matrix(-1 0 0 1 573.653 139.059)" fill="#C4C4C4"/>
<rect width="11.9337" height="28.1957" transform="matrix(-1 0 0 1 592.096 139.059)" fill="#C4C4C4"/>
<rect width="11.9337" height="28.1957" transform="matrix(-1 0 0 1 610.539 139.059)" fill="#C4C4C4"/>
<rect width="11.9337" height="28.1957" transform="matrix(-1 0 0 1 628.982 139.059)" fill="#C4C4C4"/>
<rect width="11.9337" height="28.1957" transform="matrix(-1 0 0 1 231.915 153.157)" fill="#C4C4C4"/>
<rect width="11.9337" height="28.1957" transform="matrix(-1 0 0 1 250.358 153.157)" fill="#C4C4C4"/>
<rect width="11.9337" height="28.1957" transform="matrix(-1 0 0 1 268.801 153.157)" fill="#C4C4C4"/>
<rect x="561.719" y="242.082" width="16.2732" height="39.0402" fill="#C4C4C4"/>
<rect x="589.926" y="242.082" width="16.2732" height="39.0402" fill="#C4C4C4"/>
<rect x="561.719" y="295.22" width="16.2732" height="39.0402" fill="#C4C4C4"/>
<rect x="589.926" y="295.22" width="16.2732" height="39.0402" fill="#C4C4C4"/>
<rect x="561.719" y="347.273" width="16.2732" height="67.236" fill="#C4C4C4"/>
<rect x="589.926" y="347.273" width="16.2732" height="67.236" fill="#C4C4C4"/>
<rect x="561.719" y="429.692" width="16.2732" height="26.0268" fill="#C4C4C4"/>
<rect x="589.926" y="429.692" width="16.2732" height="26.0268" fill="#C4C4C4"/>
<rect x="561.719" y="467.648" width="16.2732" height="33.618" fill="#C4C4C4"/>
<rect x="589.926" y="467.648" width="16.2732" height="33.618" fill="#C4C4C4"/>
<rect x="561.719" y="188.944" width="16.2732" height="39.0402" fill="#C4C4C4"/>
<rect x="589.926" y="188.944" width="16.2732" height="39.0402" fill="#C4C4C4"/>
<rect x="618.133" y="188.944" width="16.2732" height="39.0402" fill="#C4C4C4"/>
<rect x="618.133" y="242.082" width="16.2732" height="39.0402" fill="#C4C4C4"/>
<rect x="618.133" y="295.22" width="16.2732" height="39.0402" fill="#C4C4C4"/>
<rect x="618.133" y="347.273" width="16.2732" height="67.236" fill="#C4C4C4"/>
<rect x="618.133" y="429.692" width="16.2732" height="26.0268" fill="#C4C4C4"/>
<rect x="618.133" y="467.648" width="16.2732" height="33.618" fill="#C4C4C4"/>
<rect x="387.052" y="158.581" width="16.4116" height="16.4051" fill="#B3B496"/>
<rect x="439.803" y="158.581" width="16.4116" height="16.4051" fill="#B3B496"/>
<rect x="413.428" y="158.581" width="16.4116" height="16.4051" fill="#B3B496"/>
<rect x="466.179" y="158.581" width="16.4116" height="16.4051" fill="#B3B496"/>
<rect x="387.052" y="347.275" width="16.4116" height="16.4051" fill="#B3B496"/>
<rect x="439.803" y="347.275" width="16.4116" height="16.4051" fill="#B3B496"/>
<rect x="413.428" y="347.275" width="16.4116" height="16.4051" fill="#B3B496"/>
<rect x="466.179" y="347.275" width="16.4116" height="16.4051" fill="#B3B496"/>
<rect x="387.052" y="221.479" width="16.4116" height="16.4051" fill="#B3B496"/>
<rect x="439.803" y="221.479" width="16.4116" height="16.4051" fill="#B3B496"/>
<rect x="413.428" y="221.479" width="16.4116" height="16.4051" fill="#B3B496"/>
<rect x="466.179" y="221.479" width="16.4116" height="16.4051" fill="#B3B496"/>
<rect x="387.052" y="410.173" width="16.4116" height="16.4051" fill="#B3B496"/>
<rect x="439.803" y="410.173" width="16.4116" height="16.4051" fill="#B3B496"/>
<rect x="413.428" y="410.173" width="16.4116" height="16.4051" fill="#B3B496"/>
<rect x="466.179" y="410.173" width="16.4116" height="16.4051" fill="#B3B496"/>
<rect x="387.052" y="284.377" width="16.4116" height="16.4051" fill="#B3B496"/>
<rect x="439.803" y="284.377" width="16.4116" height="16.4051" fill="#B3B496"/>
<rect x="413.428" y="284.377" width="16.4116" height="16.4051" fill="#B3B496"/>
<rect x="466.179" y="284.377" width="16.4116" height="16.4051" fill="#B3B496"/>
<rect x="387.052" y="473.071" width="16.4116" height="16.4051" fill="#B3B496"/>
<rect x="439.803" y="473.071" width="16.4116" height="16.4051" fill="#B3B496"/>
<rect x="413.428" y="473.071" width="16.4116" height="16.4051" fill="#B3B496"/>
<rect x="466.179" y="473.071" width="16.4116" height="16.4051" fill="#B3B496"/>
<rect x="387.052" y="190.031" width="16.4116" height="16.4051" fill="#B3B496"/>
<rect x="439.803" y="190.031" width="16.4116" height="16.4051" fill="#B3B496"/>
<rect x="413.428" y="190.031" width="16.4116" height="16.4051" fill="#B3B496"/>
<rect x="466.179" y="190.031" width="16.4116" height="16.4051" fill="#B3B496"/>
<rect x="387.052" y="378.724" width="16.4116" height="16.4051" fill="#B3B496"/>
<rect x="439.803" y="378.724" width="16.4116" height="16.4051" fill="#B3B496"/>
<rect x="413.428" y="378.724" width="16.4116" height="16.4051" fill="#B3B496"/>
<rect x="466.179" y="378.724" width="16.4116" height="16.4051" fill="#B3B496"/>
<rect x="387.052" y="252.928" width="16.4116" height="16.4051" fill="#B3B496"/>
<rect x="439.803" y="252.928" width="16.4116" height="16.4051" fill="#B3B496"/>
<rect x="413.428" y="252.928" width="16.4116" height="16.4051" fill="#B3B496"/>
<rect x="466.179" y="252.928" width="16.4116" height="16.4051" fill="#B3B496"/>
<rect x="387.052" y="441.622" width="16.4116" height="16.4051" fill="#B3B496"/>
<rect x="439.803" y="441.622" width="16.4116" height="16.4051" fill="#B3B496"/>
<rect x="413.428" y="441.622" width="16.4116" height="16.4051" fill="#B3B496"/>
<rect x="466.179" y="441.622" width="16.4116" height="16.4051" fill="#B3B496"/>
<rect x="387.052" y="315.826" width="16.4116" height="16.4051" fill="#B3B496"/>
<rect x="439.803" y="315.826" width="16.4116" height="16.4051" fill="#B3B496"/>
<rect x="413.428" y="315.826" width="16.4116" height="16.4051" fill="#B3B496"/>
<rect x="466.179" y="315.826" width="16.4116" height="16.4051" fill="#B3B496"/>
<rect x="387.052" y="504.521" width="16.4116" height="16.4051" fill="#B3B496"/>
<rect x="439.803" y="504.521" width="16.4116" height="16.4051" fill="#B3B496"/>
<rect x="413.428" y="504.521" width="16.4116" height="16.4051" fill="#B3B496"/>
<rect x="466.179" y="504.521" width="16.4116" height="16.4051" fill="#B3B496"/>
<rect x="20.3635" y="345.105" width="12.6449" height="7.96413" fill="#C8C9B1"/>
<rect x="61.0074" y="345.105" width="12.6449" height="7.96413" fill="#C8C9B1"/>
<rect x="40.6859" y="345.105" width="12.6449" height="7.96413" fill="#C8C9B1"/>
<rect x="81.3298" y="345.105" width="12.6449" height="7.96413" fill="#C8C9B1"/>
<rect x="20.3635" y="436.711" width="12.6449" height="7.96413" fill="#C8C9B1"/>
<rect x="61.0074" y="436.711" width="12.6449" height="7.96413" fill="#C8C9B1"/>
<rect x="40.686" y="436.711" width="12.6449" height="7.96413" fill="#C8C9B1"/>
<rect x="81.3298" y="436.711" width="12.6449" height="7.96413" fill="#C8C9B1"/>
<rect x="20.3635" y="375.64" width="12.6449" height="7.96413" fill="#C8C9B1"/>
<rect x="61.0074" y="375.64" width="12.6449" height="7.96413" fill="#C8C9B1"/>
<rect x="40.686" y="375.64" width="12.6449" height="7.96413" fill="#C8C9B1"/>
<rect x="81.3298" y="375.64" width="12.6449" height="7.96413" fill="#C8C9B1"/>
<rect x="20.3635" y="467.247" width="12.6449" height="7.96413" fill="#C8C9B1"/>
<rect x="61.0074" y="467.247" width="12.6449" height="7.96413" fill="#C8C9B1"/>
<rect x="40.686" y="467.247" width="12.6449" height="7.96413" fill="#C8C9B1"/>
<rect x="81.3298" y="467.247" width="12.6449" height="7.96413" fill="#C8C9B1"/>
<rect x="20.3635" y="406.176" width="12.6449" height="7.96413" fill="#C8C9B1"/>
<rect x="61.0074" y="406.176" width="12.6449" height="7.96413" fill="#C8C9B1"/>
<rect x="40.686" y="406.176" width="12.6449" height="7.96413" fill="#C8C9B1"/>
<rect x="81.3298" y="406.176" width="12.6449" height="7.96413" fill="#C8C9B1"/>
<rect x="20.3635" y="497.78" width="12.6449" height="7.96413" fill="#C8C9B1"/>
<rect x="61.0074" y="497.78" width="12.6449" height="7.96413" fill="#C8C9B1"/>
<rect x="40.686" y="497.78" width="12.6449" height="7.96413" fill="#C8C9B1"/>
<rect x="81.3298" y="497.78" width="12.6449" height="7.96413" fill="#C8C9B1"/>
<rect x="20.3635" y="360.373" width="12.6449" height="7.96413" fill="#C8C9B1"/>
<rect x="61.0074" y="360.373" width="12.6449" height="7.96413" fill="#C8C9B1"/>
<rect x="40.686" y="360.373" width="12.6449" height="7.96413" fill="#C8C9B1"/>
<rect x="81.3298" y="360.373" width="12.6449" height="7.96413" fill="#C8C9B1"/>
<rect x="20.3635" y="451.978" width="12.6449" height="7.96413" fill="#C8C9B1"/>
<rect x="61.0074" y="451.978" width="12.6449" height="7.96413" fill="#C8C9B1"/>
<rect x="40.686" y="451.978" width="12.6449" height="7.96413" fill="#C8C9B1"/>
<rect x="81.3298" y="451.978" width="12.6449" height="7.96413" fill="#C8C9B1"/>
<rect x="20.3635" y="390.907" width="12.6449" height="7.96413" fill="#C8C9B1"/>
<rect x="61.0074" y="390.907" width="12.6449" height="7.96413" fill="#C8C9B1"/>
<rect x="40.686" y="390.907" width="12.6449" height="7.96413" fill="#C8C9B1"/>
<rect x="81.3298" y="390.907" width="12.6449" height="7.96413" fill="#C8C9B1"/>
<rect x="20.3635" y="482.513" width="12.6449" height="7.96413" fill="#C8C9B1"/>
<rect x="61.0074" y="482.513" width="12.6449" height="7.96413" fill="#C8C9B1"/>
<rect x="40.6859" y="482.513" width="12.6449" height="7.96413" fill="#C8C9B1"/>
<rect x="81.3298" y="482.513" width="12.6449" height="7.96413" fill="#C8C9B1"/>
<rect x="20.3635" y="421.444" width="12.6449" height="7.96413" fill="#C8C9B1"/>
<rect x="61.0074" y="421.444" width="12.6449" height="7.96413" fill="#C8C9B1"/>
<rect x="40.686" y="421.444" width="12.6449" height="7.96413" fill="#C8C9B1"/>
<rect x="81.3298" y="421.444" width="12.6449" height="7.96413" fill="#C8C9B1"/>
<rect x="20.3635" y="513.05" width="12.6449" height="7.96413" fill="#C8C9B1"/>
<rect x="61.0074" y="513.05" width="12.6449" height="7.96413" fill="#C8C9B1"/>
<rect x="40.686" y="513.05" width="12.6449" height="7.96413" fill="#C8C9B1"/>
<rect x="81.3298" y="513.05" width="12.6449" height="7.96413" fill="#C8C9B1"/>
<defs>
<filter id="filter0_d_91_20" x="758.421" y="331.007" width="19.9337" height="24.2667" filterUnits="userSpaceOnUse" color-interpolation-filters="sRGB">
<feFlood flood-opacity="0" result="BackgroundImageFix"/>
<feColorMatrix in="SourceAlpha" type="matrix" values="0 0 0 0 0 0 0 0 0 0 0 0 0 0 0 0 0 0 127 0" result="hardAlpha"/>
<feOffset dy="4"/>
<feGaussianBlur stdDeviation="2"/>
<feComposite in2="hardAlpha" operator="out"/>
<feColorMatrix type="matrix" values="0 0 0 0 0 0 0 0 0 0 0 0 0 0 0 0 0 0 0.25 0"/>
<feBlend mode="normal" in2="BackgroundImageFix" result="effect1_dropShadow_91_20"/>
<feBlend mode="normal" in="SourceGraphic" in2="effect1_dropShadow_91_20" result="shape"/>
</filter>
</defs>
</svg>
