<svg xmlns="http://www.w3.org/2000/svg" fill="none" viewBox="0 0 1920 83">
  <path fill="url(#a)" d="M0 68.295v-7.76h13.827V53.47H26.85v-3.007h4.02V53.8h17.283v-3.338h24.88v8.931h33.401V57.68h10.33v-2.526h43.933v-8.21h26.93v3.669h19.494v-6.135h6.713v-1.894h2.934v-2.346h3.135v-3.368h12.54v3.85h5.628v2.014h2.009v1.744h7.838v5.293h11.456v-6.015h10.289v-3.518h59.89v6.706h18.369v-2.466h34.084v-1.894h18.409v4.18h11.657v-6.045h19.052v6.045h31.834V37.86h39.269v8.24h9.165v2.165h11.897v2.526h18.168v-3.007h2.452v-5.714h17.726v-2.195h11.656v-4.18h13.907v4.691h5.828v11.608h22.429v-1.864h3.376v-2.526h2.452V45.92h18.168v-4.18h94.617v4.51h2.251v4.722h7.396v-3.188h12.098v3.519h7.878v-8.24h8.521v2.345h9.607v5.383h28.94v-4.54h15.475v-7.7h41.279v3.189h61.216V37.2h4.904v-4.18h41.922v3.518h6.311v6.526h19.054V27.817h44.85V41.41h7.16v-6.376h15.03v2.827h60.09v4.722h39.23v-6.616h35.13v-12.45h38.83v15.216h26.81V8.3h81.39v25.592h107.28V15.908h24.04V8.3h17.56V0h42.53v14.525h11.09v19.607h39.75v-7.157H1613v7.157h16.64v10.345h62.86V29.742h13.87v-6.225h86.94v6.916h41.6v14.044h24.96V7.608H1920V83L0 68.295Z"/>
  <defs>
    <linearGradient id="a" x1="0" x2="1920" y1="41.5" y2="41.5" gradientUnits="userSpaceOnUse">
      <stop offset=".05" stop-color="#036"/>
      <stop offset=".36" stop-color="#537086"/>
      <stop offset="1" stop-color="#455769"/>
    </linearGradient>
  </defs>
</svg>