<svg xmlns="http://www.w3.org/2000/svg" width="990" height="460" fill="none" viewBox="0 0 990 460">
  <g clip-path="url(#a)">
    <path fill="#1E3E51" d="M988.705 280.344h-55.437v-73.586h-63.115v-46.106l-54.799-.354v-28.711l-15.281-40.382-12.785 42.526v62.12h-14.962v-79.888l-33.904.354v167.401h-17.61V175.772h-16.238v-65.365h-60.75v35.722h-9.631V79.347h-45.036v202.749h-13.893V63.519h-8.579V46.85l-23.203-32.98-23.711 32.98v16.892h-7.584v218.353h-19.336V91.204h-47.647v134.962h-14.511V61.114l-55.099-15.698V251.54H344.13v-55.689l-43.479-20.079V91.205l-31.069-44.633V7.588h-3.867v39.151l-24.931 44.242v84.455l-39.855 20.415v78.695h-35.932v-57.087h-9.274V9.769H145.51V0h-29.624v9.77h-8.241v207.689H98.69v-22.074h-14.7V111.19H73.01v-15.1H53.635l-.432 14.746H40.738v84.549H27.484l.807 21.72-9.086 8.706v66.819H0v114.177h990l-1.295-126.463Z"/>
  </g>
  <!-- Church-last-windows(replace fill with variable window-maincolor, + opacity 0.6 -->
  <g fill="#C4C4C4">
    <rect width="4.028" height="10.02" transform="matrix(-1 0 0 1 798.646 135.269)"/>
    <rect width="4.028" height="10.02" transform="matrix(-1 0 0 1 807.71 135.269)"/>
    <rect width="4.028" height="10.02" transform="matrix(-1 0 0 1 798.645 150.298)"/>
    <rect width="4.028" height="10.02" transform="matrix(-1 0 0 1 807.71 150.298)"/>
    <rect width="5.036" height="9.018" transform="matrix(-1 0 0 1 825.84 168.335)"/>
    <rect width="5.036" height="9.018" transform="matrix(-1 0 0 1 837.925 168.335)"/>
    <rect width="5.036" height="9.018" transform="matrix(-1 0 0 1 850.012 168.335)"/>
    <rect width="5.036" height="9.018" transform="matrix(-1 0 0 1 862.097 168.335)"/>
  </g>
  <!-- BULDING-1 BACK -->
  <rect width="4.844" height="4.249" x="48.344" y="133.519" fill="#70818E"/>
  <rect width="4.844" height="4.249" x="48.344" y="163.329" fill="#70818E"/>
  <rect width="4.844" height="4.249" x="48.344" y="193.141" fill="#70818E"/>
  <rect width="4.844" height="4.249" x="56.129" y="133.519" fill="#70818E"/>
  <rect width="4.844" height="4.249" x="56.129" y="163.329" fill="#70818E"/>
  <rect width="4.844" height="4.249" x="56.129" y="193.141" fill="#70818E"/>
  <rect width="4.844" height="4.249" x="48.345" y="123.241" fill="#70818E"/>
  <rect width="4.844" height="4.249" x="63.917" y="123.241" fill="#70818E"/>
  <rect width="4.844" height="4.249" x="56.13" y="123.241" fill="#70818E"/>
  <rect width="4.844" height="4.249" x="71.7" y="123.241" fill="#70818E"/>
  <rect width="4.844" height="4.249" x="48.345" y="123.241" fill="#70818E"/>
  <rect width="4.844" height="4.249" x="63.917" y="123.241" fill="#70818E"/>
  <rect width="4.844" height="4.249" x="56.13" y="123.241" fill="#70818E"/>
  <rect width="4.844" height="4.249" x="71.7" y="123.241" fill="#70818E"/>
  <rect width="4.844" height="4.249" x="48.345" y="153.055" fill="#70818E"/>
  <rect width="4.844" height="4.249" x="63.917" y="153.055" fill="#70818E"/>
  <rect width="4.844" height="4.249" x="56.13" y="153.055" fill="#70818E"/>
  <rect width="4.844" height="4.249" x="71.7" y="153.055" fill="#70818E"/>
  <rect width="4.844" height="4.249" x="48.345" y="182.866" fill="#70818E"/>
  <rect width="4.844" height="4.249" x="63.917" y="182.866" fill="#70818E"/>
  <rect width="4.844" height="4.249" x="56.13" y="182.866" fill="#70818E"/>
  <rect width="4.844" height="4.249" x="71.7" y="182.866" fill="#70818E"/>
  <rect width="4.844" height="4.249" x="48.345" y="143.117" fill="#70818E"/>
  <rect width="4.844" height="4.249" x="63.917" y="143.117" fill="#70818E"/>
  <rect width="4.844" height="4.249" x="56.13" y="143.117" fill="#70818E"/>
  <rect width="4.844" height="4.249" x="71.7" y="143.117" fill="#70818E"/>
  <rect width="4.844" height="4.249" x="48.345" y="172.929" fill="#70818E"/>
  <rect width="4.844" height="4.249" x="63.917" y="172.929" fill="#70818E"/>
  <rect width="4.844" height="4.249" x="56.13" y="172.929" fill="#70818E"/>
  <rect width="4.844" height="4.249" x="71.7" y="172.929" fill="#70818E"/>
  <rect width="4.844" height="4.249" x="63.916" y="133.516" fill="#70818E"/>
  <rect width="4.844" height="4.249" x="63.916" y="163.329" fill="#70818E"/>
  <rect width="4.844" height="4.249" x="63.916" y="193.14" fill="#70818E"/>
  <rect width="4.844" height="4.249" x="71.7" y="133.516" fill="#70818E"/>
  <rect width="4.844" height="4.249" x="71.7" y="163.329" fill="#70818E"/>
  <rect width="4.844" height="4.249" x="71.7" y="193.14" fill="#70818E"/>
<!-- BULDING 1 FRONT -->
  <rect width="9.049" height="4.532" x="38.272" y="210.418" fill="#BEBEA2"/>
  <rect width="9.049" height="4.532" x="38.272" y="242.219" fill="#BEBEA2"/>
  <rect width="9.049" height="4.532" x="38.272" y="274.021" fill="#BEBEA2"/>
  <rect width="9.049" height="4.532" x="52.814" y="210.418" fill="#BEBEA2"/>
  <rect width="9.049" height="4.532" x="52.814" y="242.219" fill="#BEBEA2"/>
  <rect width="9.049" height="4.532" x="52.814" y="274.021" fill="#BEBEA2"/>
  <rect width="9.049" height="4.532" x="38.272" y="231.26" fill="#BEBEA2"/>
  <rect width="9.049" height="4.532" x="67.357" y="231.26" fill="#BEBEA2"/>
  <rect width="9.049" height="4.532" x="52.813" y="231.26" fill="#BEBEA2"/>
  <rect width="9.049" height="4.532" x="81.899" y="231.26" fill="#BEBEA2"/>
  <rect width="9.049" height="4.532" x="38.272" y="263.06" fill="#BEBEA2"/>
  <rect width="9.049" height="4.532" x="67.357" y="263.06" fill="#BEBEA2"/>
  <rect width="9.049" height="4.532" x="52.813" y="263.06" fill="#BEBEA2"/>
  <rect width="9.049" height="4.532" x="81.899" y="263.06" fill="#BEBEA2"/>
  <rect width="9.049" height="4.532" x="38.272" y="220.659" fill="#BEBEA2"/>
  <rect width="9.049" height="4.532" x="67.357" y="220.659" fill="#BEBEA2"/>
  <rect width="9.049" height="4.532" x="52.813" y="220.659" fill="#BEBEA2"/>
  <rect width="9.049" height="4.532" x="81.899" y="220.659" fill="#BEBEA2"/>
  <rect width="9.049" height="4.532" x="38.272" y="252.461" fill="#BEBEA2"/>
  <rect width="9.049" height="4.532" x="67.357" y="252.461" fill="#BEBEA2"/>
  <rect width="9.049" height="4.532" x="52.813" y="252.461" fill="#BEBEA2"/>
  <rect width="9.049" height="4.532" x="81.899" y="252.461" fill="#BEBEA2"/>
  <rect width="9.049" height="4.532" x="67.356" y="210.418" fill="#BEBEA2"/>
  <rect width="9.049" height="4.532" x="67.356" y="242.219" fill="#BEBEA2"/>
  <rect width="9.049" height="4.532" x="67.356" y="274.021" fill="#BEBEA2"/>
  <rect width="9.049" height="4.532" x="81.899" y="210.418" fill="#BEBEA2"/>
  <rect width="9.049" height="4.532" x="81.899" y="242.219" fill="#BEBEA2"/>
  <rect width="9.049" height="4.532" x="81.899" y="274.021" fill="#BEBEA2"/>
  <!-- BUILDING 3 CHURCH -->
  <rect width="7.998" height="18.036" x="251.78" y="92.186" fill="#949CA5"/>
  <rect width="7.998" height="18.036" x="265.642" y="92.186" fill="#949CA5"/>
  <rect width="7.998" height="18.036" x="279.505" y="92.186" fill="#949CA5"/>
  <g fill="#70818E">
    <rect width="8.057" height="20.04" x="218.545" y="230.457"/>
    <rect width="8.057" height="20.04" x="232.644" y="230.457"/>
  </g>
  <g fill="#70818E">
    <rect width="8.057" height="20.04" x="260.845" y="230.457"/>
    <rect width="8.057" height="20.04" x="274.944" y="230.457"/>
  </g>
  <g fill="#70818E">
    <rect width="8.057" height="20.04" x="303.144" y="230.457"/>
    <rect width="8.057" height="20.04" x="317.243" y="230.457"/>
  </g>
  <path fill="#BEBEA2" d="M263 140.819v18.239h16.114v-18.239c0-14.591-16.114-14.259-16.114 0Z"/>
  <path fill="#BEBEA2" d="M263 193.924v18.239h16.114v-18.239c0-14.591-16.114-14.259-16.114 0Z"/>
  <!-- BULDING 4 -->
    <rect width="6.991" height="9.484" fill="#949CA5" transform="matrix(-1 0 0 1 389.696 96.19)"/>
    <rect width="6.991" height="9.484" fill="#949CA5" transform="matrix(-1 0 0 1 400.501 96.19)"/>
    <path fill="#7E8B81" d="M411.305 96.19h-6.991v9.485h6.991v-9.484Z"/>
    <rect width="6.991" height="9.484" fill="#70818E" transform="matrix(-1 0 0 1 422.109 96.19)"/>
    <rect width="6.991" height="9.484" fill="#70818E" transform="matrix(-1 0 0 1 389.696 109.469)"/>
    <rect width="6.991" height="9.484" fill="#949CA5" transform="matrix(-1 0 0 1 411.305 109.469)"/>
    <rect width="6.991" height="9.484" fill="#70818E" transform="matrix(-1 0 0 1 389.696 122.745)"/>
    <rect width="6.991" height="9.484" fill="#70818E" transform="matrix(-1 0 0 1 400.501 122.745)"/>
    <rect width="6.991" height="9.484" fill="#70818E" transform="matrix(-1 0 0 1 411.305 122.745)"/>
    <rect width="6.991" height="9.484" fill="#70818E" transform="matrix(-1 0 0 1 422.109 122.745)"/>
    <rect width="6.991" height="9.484" fill="#70818E" transform="matrix(-1 0 0 1 389.696 136.025)"/>
    <rect width="6.991" height="9.484" fill="#70818E" transform="matrix(-1 0 0 1 400.501 136.025)"/>
    <rect width="6.991" height="9.484" fill="#C4C4C4" transform="matrix(-1 0 0 1 411.305 136.025)"/>
    <rect width="6.991" height="9.484" fill="#C4C4C4" transform="matrix(-1 0 0 1 422.109 136.025)"/>
    <rect width="6.991" height="9.484" fill="#405A6B" transform="matrix(-1 0 0 1 389.696 149.303)"/>
    <rect width="6.991" height="9.484" fill="#C4C4C4" transform="matrix(-1 0 0 1 400.501 149.303)"/>
    <rect width="6.991" height="9.484" fill="#C4C4C4" transform="matrix(-1 0 0 1 422.109 149.303)"/>
    <rect width="6.991" height="9.484" fill="#C4C4C4" transform="matrix(-1 0 0 1 389.696 162.582)"/>
    <rect width="6.991" height="9.484" fill="#70818E" transform="matrix(-1 0 0 1 400.501 162.582)"/>
    <rect width="6.991" height="9.484" fill="#C4C4C4" transform="matrix(-1 0 0 1 411.305 162.582)"/>
    <rect width="6.991" height="9.484" fill="#70818E" transform="matrix(-1 0 0 1 422.109 162.582)"/>
    <rect width="6.991" height="9.484" fill="#70818E" transform="matrix(-1 0 0 1 389.696 175.861)"/>
    <rect width="6.991" height="9.484" fill="#BEBEA2" transform="matrix(-1 0 0 1 400.501 175.861)"/>
    <rect width="6.991" height="9.484" fill="#405A6B" transform="matrix(-1 0 0 1 411.305 175.861)"/>
    <rect width="6.991" height="9.484" fill="#C4C4C4" transform="matrix(-1 0 0 1 422.109 175.861)"/>
    <rect width="6.991" height="9.484" fill="#C4C4C4" transform="matrix(-1 0 0 1 389.696 190.403)"/>
    <rect width="6.991" height="9.484" fill="#C4C4C4" transform="matrix(-1 0 0 1 400.501 190.403)"/>
    <rect width="6.991" height="9.484" fill="#C4C4C4" transform="matrix(-1 0 0 1 411.305 190.403)"/>
    <rect width="6.991" height="9.484" fill="#C4C4C4" transform="matrix(-1 0 0 1 422.109 190.403)"/>
    <rect width="6.991" height="9.484" fill="#C4C4C4" transform="matrix(-1 0 0 1 389.696 203.68)"/>
    <rect width="6.991" height="9.484" fill="#C4C4C4" transform="matrix(-1 0 0 1 400.501 203.68)"/>
    <rect width="6.991" height="9.484" fill="#C4C4C4" transform="matrix(-1 0 0 1 411.305 203.68)"/>
    <rect width="6.991" height="9.484" fill="#C4C4C4" transform="matrix(-1 0 0 1 422.109 203.68)"/>
    <rect width="6.991" height="9.484" fill="#C4C4C4" transform="matrix(-1 0 0 1 389.696 216.959)"/>
    <rect width="6.991" height="9.484" fill="#C4C4C4" transform="matrix(-1 0 0 1 400.501 216.959)"/>
    <rect width="6.991" height="9.484" fill="#C4C4C4" transform="matrix(-1 0 0 1 411.305 216.959)"/>
    <rect width="6.991" height="9.484" fill="#C4C4C4" transform="matrix(-1 0 0 1 422.109 216.959)"/>
    <rect width="6.991" height="9.484" fill="#C4C4C4" transform="matrix(-1 0 0 1 389.696 230.237)"/>
    <rect width="6.991" height="9.484" fill="#7E8B81" transform="matrix(-1 0 0 1 400.501 230.237)"/>
    <rect width="6.991" height="9.484" fill="#C4C4C4" transform="matrix(-1 0 0 1 411.305 230.237)"/>
    <rect width="6.991" height="9.484" fill="#C4C4C4" transform="matrix(-1 0 0 1 422.109 230.237)"/>
    <rect width="6.991" height="9.484" fill="#949CA5" transform="matrix(-1 0 0 1 389.696 243.515)"/>
    <rect width="6.991" height="9.484" fill="#C4C4C4" transform="matrix(-1 0 0 1 400.501 243.515)"/>
    <rect width="6.991" height="9.484" fill="#405A6B" transform="matrix(-1 0 0 1 411.305 243.515)"/>
    <rect width="6.991" height="9.484" fill="#C4C4C4" transform="matrix(-1 0 0 1 422.109 243.515)"/>
    <rect width="6.991" height="9.484" fill="#C4C4C4" transform="matrix(-1 0 0 1 400.501 256.794)"/>
    <rect width="6.991" height="9.484" fill="#BEBEA2" transform="matrix(-1 0 0 1 411.305 256.794)"/>
    <rect width="6.991" height="9.484" fill="#BEBEA2" transform="matrix(-1 0 0 1 422.109 256.794)"/>
    <rect width="6.991" height="9.484" fill="#C4C4C4" transform="matrix(-1 0 0 1 389.696 270.072)"/>
    <rect width="6.991" height="9.484" fill="#C4C4C4" transform="matrix(-1 0 0 1 400.501 270.072)"/>
    <rect width="6.991" height="9.484" fill="#C4C4C4" transform="matrix(-1 0 0 1 411.305 270.072)"/>
    <rect width="6.991" height="9.484" fill="#C4C4C4" transform="matrix(-1 0 0 1 422.109 270.072)"/>
  <!-- BUILDING 5 -->
    <rect width="6.991" height="9.484" fill="#C4C4C4" transform="matrix(1 0 0 -1 557.12 279.557)"/>
    <rect width="6.991" height="9.484" fill="#C4C4C4" transform="matrix(1 0 0 -1 546.316 279.557)"/>
    <rect width="6.991" height="9.484" fill="#F5F5C9" transform="matrix(1 0 0 -1 535.512 279.557)"/>
    <rect width="6.991" height="9.484" fill="#C4C4C4" transform="matrix(1 0 0 -1 524.708 279.557)"/>
    <rect width="6.991" height="9.484" fill="#C4C4C4" transform="matrix(1 0 0 -1 557.12 266.28)"/>
    <rect width="6.991" height="9.484" fill="#C4C4C4" transform="matrix(1 0 0 -1 535.512 266.28)"/>
    <rect width="6.991" height="9.484" fill="#C4C4C4" transform="matrix(1 0 0 -1 557.12 253.001)"/>
    <rect width="6.991" height="9.484" fill="#C4C4C4" transform="matrix(1 0 0 -1 546.316 253.001)"/>
    <rect width="6.991" height="9.484" fill="#C4C4C4" transform="matrix(1 0 0 -1 535.512 253.001)"/>
    <rect width="6.991" height="9.484" fill="#C4C4C4" transform="matrix(1 0 0 -1 524.708 253.001)"/>
    <rect width="6.991" height="9.484" fill="#C4C4C4" transform="matrix(1 0 0 -1 557.12 239.722)"/>
    <rect width="6.991" height="9.484" fill="#F5F5C9" transform="matrix(1 0 0 -1 546.316 239.722)"/>
    <rect width="6.991" height="9.484" fill="#C4C4C4" transform="matrix(1 0 0 -1 535.512 239.722)"/>
    <rect width="6.991" height="9.484" fill="#C4C4C4" transform="matrix(1 0 0 -1 524.708 239.722)"/>
    <rect width="6.991" height="9.484" fill="#405A6B" transform="matrix(1 0 0 -1 557.12 226.444)"/>
    <rect width="6.991" height="9.484" fill="#C4C4C4" transform="matrix(1 0 0 -1 546.316 226.444)"/>
    <rect width="6.991" height="9.484" fill="#C4C4C4" transform="matrix(1 0 0 -1 524.708 226.444)"/>
    <rect width="6.991" height="9.484" fill="#C4C4C4" transform="matrix(1 0 0 -1 557.12 213.165)"/>
    <rect width="6.991" height="9.484" fill="#405A6B" transform="matrix(1 0 0 -1 546.316 213.165)"/>
    <rect width="6.991" height="9.484" fill="#C4C4C4" transform="matrix(1 0 0 -1 535.512 213.165)"/>
    <rect width="6.991" height="9.484" fill="#70818E" transform="matrix(1 0 0 -1 524.708 213.165)"/>
    <rect width="6.991" height="9.484" fill="#BEBEA2" transform="matrix(1 0 0 -1 557.12 199.888)"/>
    <rect width="6.991" height="9.484" fill="#BEBEA2" transform="matrix(1 0 0 -1 546.316 199.888)"/>
    <rect width="6.991" height="9.484" fill="#70818E" transform="matrix(1 0 0 -1 535.512 199.888)"/>
    <rect width="6.991" height="9.484" fill="#C4C4C4" transform="matrix(1 0 0 -1 524.708 199.888)"/>
    <rect width="6.991" height="9.484" fill="#C4C4C4" transform="matrix(1 0 0 -1 557.12 185.346)"/>
    <rect width="6.991" height="9.484" fill="#C4C4C4" transform="matrix(1 0 0 -1 546.316 185.346)"/>
    <rect width="6.991" height="9.484" fill="#C4C4C4" transform="matrix(1 0 0 -1 535.512 185.346)"/>
    <rect width="6.991" height="9.484" fill="#C4C4C4" transform="matrix(1 0 0 -1 524.708 185.346)"/>
    <rect width="6.991" height="9.484" fill="#C4C4C4" transform="matrix(1 0 0 -1 557.12 172.068)"/>
    <rect width="6.991" height="9.484" fill="#C4C4C4" transform="matrix(1 0 0 -1 546.316 172.068)"/>
    <rect width="6.991" height="9.484" fill="#C4C4C4" transform="matrix(1 0 0 -1 524.708 172.068)"/>
    <rect width="6.991" height="9.484" fill="#C4C4C4" transform="matrix(1 0 0 -1 557.12 158.789)"/>
    <rect width="6.991" height="9.484" fill="#C4C4C4" transform="matrix(1 0 0 -1 546.316 158.789)"/>
    <rect width="6.991" height="9.484" fill="#C4C4C4" transform="matrix(1 0 0 -1 535.512 158.789)"/>
    <rect width="6.991" height="9.484" fill="#C4C4C4" transform="matrix(1 0 0 -1 524.708 158.789)"/>
    <rect width="6.991" height="9.484" fill="#C4C4C4" transform="matrix(1 0 0 -1 557.12 145.51)"/>
    <rect width="6.991" height="9.484" fill="#BEBEA2" transform="matrix(1 0 0 -1 546.316 145.51)"/>
    <rect width="6.991" height="9.484" fill="#C4C4C4" transform="matrix(1 0 0 -1 535.512 145.51)"/>
    <rect width="6.991" height="9.484" fill="#C4C4C4" transform="matrix(1 0 0 -1 524.708 145.51)"/>
    <rect width="6.991" height="9.484" fill="#BEBEA2" transform="matrix(1 0 0 -1 557.12 132.234)"/>
    <rect width="6.991" height="9.484" fill="#C4C4C4" transform="matrix(1 0 0 -1 546.316 132.234)"/>
    <rect width="6.991" height="9.484" fill="#70818E" transform="matrix(1 0 0 -1 535.512 132.234)"/>
    <rect width="6.991" height="9.484" fill="#C4C4C4" transform="matrix(1 0 0 -1 524.708 132.234)"/>
    <rect width="6.991" height="9.484" fill="#C4C4C4" transform="matrix(1 0 0 -1 546.316 118.953)"/>
    <rect width="6.991" height="9.484" fill="#BEBEA2" transform="matrix(1 0 0 -1 535.512 118.953)"/>
    <rect width="6.991" height="9.484" fill="#BEBEA2" transform="matrix(1 0 0 -1 524.708 118.953)"/>
    <rect width="6.991" height="9.484" fill="#C4C4C4" transform="matrix(1 0 0 -1 557.12 105.677)"/>
    <rect width="6.991" height="9.484" fill="#C4C4C4" transform="matrix(1 0 0 -1 546.316 105.677)"/>
    <rect width="6.991" height="9.484" fill="#C4C4C4" transform="matrix(1 0 0 -1 535.512 105.677)"/>
    <rect width="6.991" height="9.484" fill="#C4C4C4" transform="matrix(1 0 0 -1 524.708 105.677)"/>

<!-- BUIDLING 2 -->
  <rect width="6.401" height="6.368" x="112.798" y="32.064" fill="#BEBEA2"/>
  <rect width="6.401" height="6.368" x="133.373" y="32.064" fill="#BEBEA2"/>
  <rect width="6.401" height="6.368" x="123.085" y="32.064" fill="#BEBEA2"/>
  <rect width="6.401" height="6.368" x="143.66" y="32.064" fill="#BEBEA2"/>
  <rect width="6.401" height="6.368" x="112.798" y="105.315" fill="#BEBEA2"/>
  <rect width="6.401" height="6.368" x="133.373" y="105.315" fill="#BEBEA2"/>
  <rect width="6.401" height="6.368" x="123.085" y="105.315" fill="#BEBEA2"/>
  <rect width="6.401" height="6.368" x="143.66" y="105.315" fill="#BEBEA2"/>
  <rect width="6.401" height="6.368" x="112.798" y="56.482" fill="#BEBEA2"/>
  <rect width="6.401" height="6.368" x="133.373" y="56.482" fill="#BEBEA2"/>
  <rect width="6.401" height="6.368" x="123.085" y="56.482" fill="#BEBEA2"/>
  <rect width="6.401" height="6.368" x="143.66" y="56.482" fill="#BEBEA2"/>
  <rect width="6.401" height="6.368" x="112.798" y="129.733" fill="#BEBEA2"/>
  <rect width="6.401" height="6.368" x="133.373" y="129.733" fill="#BEBEA2"/>
  <rect width="6.401" height="6.368" x="123.085" y="129.733" fill="#BEBEA2"/>
  <rect width="6.401" height="6.368" x="143.66" y="129.733" fill="#BEBEA2"/>
  <rect width="6.401" height="6.368" x="112.798" y="80.897" fill="#BEBEA2"/>
  <rect width="6.401" height="6.368" x="133.373" y="80.897" fill="#BEBEA2"/>
  <rect width="6.401" height="6.368" x="123.085" y="80.897" fill="#BEBEA2"/>
  <rect width="6.401" height="6.368" x="143.66" y="80.897" fill="#BEBEA2"/>
  <rect width="6.401" height="6.368" x="112.798" y="154.151" fill="#BEBEA2"/>
  <rect width="6.401" height="6.368" x="133.373" y="154.151" fill="#BEBEA2"/>
  <rect width="6.401" height="6.368" x="123.085" y="154.151" fill="#BEBEA2"/>
  <rect width="6.401" height="6.368" x="143.66" y="154.151" fill="#BEBEA2"/>
  <rect width="6.401" height="6.368" x="112.798" y="44.275" fill="#BEBEA2"/>
  <rect width="6.401" height="6.368" x="133.373" y="44.275" fill="#BEBEA2"/>
  <rect width="6.401" height="6.368" x="123.085" y="44.275" fill="#BEBEA2"/>
  <rect width="6.401" height="6.368" x="143.66" y="44.275" fill="#BEBEA2"/>
  <rect width="6.401" height="6.368" x="112.798" y="117.525" fill="#BEBEA2"/>
  <rect width="6.401" height="6.368" x="133.373" y="117.525" fill="#BEBEA2"/>
  <rect width="6.401" height="6.368" x="123.085" y="117.525" fill="#BEBEA2"/>
  <rect width="6.401" height="6.368" x="143.66" y="117.525" fill="#BEBEA2"/>
  <rect width="6.401" height="6.368" x="112.798" y="68.691" fill="#BEBEA2"/>
  <rect width="6.401" height="6.368" x="133.373" y="68.691" fill="#BEBEA2"/>
  <rect width="6.401" height="6.368" x="123.085" y="68.691" fill="#BEBEA2"/>
  <rect width="6.401" height="6.368" x="143.66" y="68.691" fill="#BEBEA2"/>
  <rect width="6.401" height="6.368" x="112.798" y="141.941" fill="#BEBEA2"/>
  <rect width="6.401" height="6.368" x="133.373" y="141.941" fill="#BEBEA2"/>
  <rect width="6.401" height="6.368" x="123.085" y="141.941" fill="#BEBEA2"/>
  <rect width="6.401" height="6.368" x="143.66" y="141.941" fill="#BEBEA2"/>
  <rect width="6.401" height="6.368" x="112.798" y="93.106" fill="#BEBEA2"/>
  <rect width="6.401" height="6.368" x="133.373" y="93.106" fill="#BEBEA2"/>
  <rect width="6.401" height="6.368" x="123.085" y="93.106" fill="#BEBEA2"/>
  <rect width="6.401" height="6.368" x="143.66" y="93.106" fill="#BEBEA2"/>
  <rect width="6.401" height="6.368" x="112.798" y="166.36" fill="#BEBEA2"/>
  <rect width="6.401" height="6.368" x="133.373" y="166.36" fill="#BEBEA2"/>
  <rect width="6.401" height="6.368" x="123.085" y="166.36" fill="#BEBEA2"/>
  <rect width="6.401" height="6.368" x="143.66" y="166.36" fill="#BEBEA2"/>
  <rect width="6.401" height="6.368" x="112.798" y="178.354" fill="#BEBEA2"/>
  <rect width="6.401" height="6.368" x="133.373" y="178.354" fill="#BEBEA2"/>
  <rect width="6.401" height="6.368" x="123.085" y="178.354" fill="#BEBEA2"/>
  <rect width="6.401" height="6.368" x="143.66" y="178.354" fill="#BEBEA2"/>
  <rect width="6.401" height="6.368" x="112.798" y="251.606" fill="#BEBEA2"/>
  <rect width="6.401" height="6.368" x="133.373" y="251.606" fill="#BEBEA2"/>
  <rect width="6.401" height="6.368" x="123.085" y="251.606" fill="#BEBEA2"/>
  <rect width="6.401" height="6.368" x="143.66" y="251.606" fill="#BEBEA2"/>
  <rect width="6.401" height="6.368" x="112.798" y="202.773" fill="#BEBEA2"/>
  <rect width="6.401" height="6.368" x="133.373" y="202.773" fill="#BEBEA2"/>
  <rect width="6.401" height="6.368" x="123.085" y="202.773" fill="#BEBEA2"/>
  <rect width="6.401" height="6.368" x="143.66" y="202.773" fill="#BEBEA2"/>
  <rect width="6.401" height="6.368" x="112.798" y="227.188" fill="#BEBEA2"/>
  <rect width="6.401" height="6.368" x="133.373" y="227.188" fill="#BEBEA2"/>
  <rect width="6.401" height="6.368" x="123.085" y="227.188" fill="#BEBEA2"/>
  <rect width="6.401" height="6.368" x="143.66" y="227.188" fill="#BEBEA2"/>
  <rect width="6.401" height="6.368" x="112.798" y="190.565" fill="#BEBEA2"/>
  <rect width="6.401" height="6.368" x="133.373" y="190.565" fill="#BEBEA2"/>
  <rect width="6.401" height="6.368" x="123.085" y="190.565" fill="#BEBEA2"/>
  <rect width="6.401" height="6.368" x="143.66" y="190.565" fill="#BEBEA2"/>
  <rect width="6.401" height="6.368" x="112.798" y="263.814" fill="#BEBEA2"/>
  <rect width="6.401" height="6.368" x="133.373" y="263.814" fill="#BEBEA2"/>
  <rect width="6.401" height="6.368" x="123.085" y="263.814" fill="#BEBEA2"/>
  <rect width="6.401" height="6.368" x="143.66" y="263.814" fill="#BEBEA2"/>
  <rect width="6.401" height="6.368" x="112.798" y="214.982" fill="#BEBEA2"/>
  <rect width="6.401" height="6.368" x="133.373" y="214.982" fill="#BEBEA2"/>
  <rect width="6.401" height="6.368" x="123.085" y="214.982" fill="#BEBEA2"/>
  <rect width="6.401" height="6.368" x="143.66" y="214.982" fill="#BEBEA2"/>
  <rect width="6.401" height="6.368" x="112.798" y="239.397" fill="#BEBEA2"/>
  <rect width="6.401" height="6.368" x="133.373" y="239.397" fill="#BEBEA2"/>
  <rect width="6.401" height="6.368" x="123.085" y="239.397" fill="#BEBEA2"/>
  <rect width="6.401" height="6.368" x="143.66" y="239.397" fill="#BEBEA2"/>
  <!-- BULDING 6 -->
  <rect width="4.776" height="3.615" x="652.611" y="122.247" fill="#BEBEA2"/>
  <rect width="4.776" height="3.615" x="667.959" y="122.247" fill="#BEBEA2"/>
  <rect width="4.776" height="3.615" x="683.466" y="122.247" fill="#BEBEA2"/>
  <rect width="4.776" height="3.615" x="660.285" y="122.247" fill="#BEBEA2"/>
  <rect width="4.776" height="3.615" x="675.634" y="122.247" fill="#BEBEA2"/>
  <rect width="4.776" height="3.615" x="691.14" y="122.247" fill="#BEBEA2"/>
  <rect width="4.776" height="3.615" x="652.611" y="133.269" fill="#BEBEA2"/>
  <rect width="4.776" height="3.615" x="667.959" y="133.269" fill="#BEBEA2"/>
  <rect width="4.776" height="3.615" x="683.466" y="133.269" fill="#BEBEA2"/>
  <rect width="4.776" height="3.615" x="660.285" y="133.269" fill="#BEBEA2"/>
  <rect width="4.776" height="3.615" x="675.634" y="133.269" fill="#BEBEA2"/>
  <rect width="4.776" height="3.615" x="691.14" y="133.269" fill="#BEBEA2"/>
  <rect width="4.776" height="3.615" x="652.611" y="144.291" fill="#BEBEA2"/>
  <rect width="4.776" height="3.615" x="667.959" y="144.291" fill="#BEBEA2"/>
  <rect width="4.776" height="3.615" x="683.466" y="144.291" fill="#BEBEA2"/>
  <rect width="4.776" height="3.615" x="660.285" y="144.291" fill="#BEBEA2"/>
  <rect width="4.776" height="3.615" x="675.634" y="144.291" fill="#BEBEA2"/>
  <rect width="4.776" height="3.615" x="691.14" y="144.291" fill="#BEBEA2"/>
  <rect width="4.776" height="3.615" x="652.611" y="155.313" fill="#BEBEA2"/>
  <rect width="4.776" height="3.615" x="667.959" y="155.313" fill="#BEBEA2"/>
  <rect width="4.776" height="3.615" x="683.466" y="155.313" fill="#BEBEA2"/>
  <rect width="4.776" height="3.615" x="660.285" y="155.313" fill="#BEBEA2"/>
  <rect width="4.776" height="3.615" x="675.634" y="155.313" fill="#BEBEA2"/>
  <rect width="4.776" height="3.615" x="691.14" y="155.313" fill="#BEBEA2"/>
  <rect width="4.776" height="3.615" x="652.611" y="166.335" fill="#BEBEA2"/>
  <rect width="4.776" height="3.615" x="667.959" y="166.335" fill="#BEBEA2"/>
  <rect width="4.776" height="3.615" x="683.466" y="166.335" fill="#BEBEA2"/>
  <rect width="4.776" height="3.615" x="660.285" y="166.335" fill="#BEBEA2"/>
  <rect width="4.776" height="3.615" x="675.634" y="166.335" fill="#BEBEA2"/>
  <rect width="4.776" height="3.615" x="691.14" y="166.335" fill="#BEBEA2"/>
  <rect width="4.776" height="3.615" x="652.611" y="177.356" fill="#BEBEA2"/>
  <rect width="4.776" height="3.615" x="667.959" y="177.356" fill="#BEBEA2"/>
  <rect width="4.776" height="3.615" x="683.466" y="177.356" fill="#BEBEA2"/>
  <rect width="4.776" height="3.615" x="660.285" y="177.356" fill="#BEBEA2"/>
  <rect width="4.776" height="3.615" x="675.634" y="177.356" fill="#BEBEA2"/>
  <rect width="4.776" height="3.615" x="691.14" y="177.356" fill="#BEBEA2"/>
  <rect width="4.776" height="3.615" x="652.611" y="232.466" fill="#BEBEA2"/>
  <rect width="4.776" height="3.615" x="667.959" y="232.466" fill="#BEBEA2"/>
  <rect width="4.776" height="3.615" x="683.466" y="232.466" fill="#BEBEA2"/>
  <rect width="4.776" height="3.615" x="660.285" y="232.466" fill="#BEBEA2"/>
  <rect width="4.776" height="3.615" x="675.634" y="232.466" fill="#BEBEA2"/>
  <rect width="4.776" height="3.615" x="691.14" y="232.466" fill="#BEBEA2"/>
  <rect width="4.776" height="3.615" x="652.611" y="188.378" fill="#BEBEA2"/>
  <rect width="4.776" height="3.615" x="667.959" y="188.378" fill="#BEBEA2"/>
  <rect width="4.776" height="3.615" x="683.466" y="188.378" fill="#BEBEA2"/>
  <rect width="4.776" height="3.615" x="660.285" y="188.378" fill="#BEBEA2"/>
  <rect width="4.776" height="3.615" x="675.634" y="188.378" fill="#BEBEA2"/>
  <rect width="4.776" height="3.615" x="691.14" y="188.378" fill="#BEBEA2"/>
  <rect width="4.776" height="3.615" x="652.611" y="243.488" fill="#BEBEA2"/>
  <rect width="4.776" height="3.615" x="667.959" y="243.488" fill="#BEBEA2"/>
  <rect width="4.776" height="3.615" x="683.466" y="243.488" fill="#BEBEA2"/>
  <rect width="4.776" height="3.615" x="660.285" y="243.488" fill="#BEBEA2"/>
  <rect width="4.776" height="3.615" x="675.634" y="243.488" fill="#BEBEA2"/>
  <rect width="4.776" height="3.615" x="691.14" y="243.488" fill="#BEBEA2"/>
  <rect width="4.776" height="3.615" x="652.611" y="199.4" fill="#BEBEA2"/>
  <rect width="4.776" height="3.615" x="667.959" y="199.4" fill="#BEBEA2"/>
  <rect width="4.776" height="3.615" x="683.466" y="199.4" fill="#BEBEA2"/>
  <rect width="4.776" height="3.615" x="660.285" y="199.4" fill="#BEBEA2"/>
  <rect width="4.776" height="3.615" x="675.634" y="199.4" fill="#BEBEA2"/>
  <rect width="4.776" height="3.615" x="691.14" y="199.4" fill="#BEBEA2"/>
  <rect width="4.776" height="3.615" x="652.611" y="254.51" fill="#BEBEA2"/>
  <rect width="4.776" height="3.615" x="667.959" y="254.51" fill="#BEBEA2"/>
  <rect width="4.776" height="3.615" x="683.466" y="254.51" fill="#BEBEA2"/>
  <rect width="4.776" height="3.615" x="660.285" y="254.51" fill="#BEBEA2"/>
  <rect width="4.776" height="3.615" x="675.634" y="254.51" fill="#BEBEA2"/>
  <rect width="4.776" height="3.615" x="691.14" y="254.51" fill="#BEBEA2"/>
  <rect width="4.776" height="3.615" x="652.611" y="210.422" fill="#BEBEA2"/>
  <rect width="4.776" height="3.615" x="667.959" y="210.422" fill="#BEBEA2"/>
  <rect width="4.776" height="3.615" x="683.466" y="210.422" fill="#BEBEA2"/>
  <rect width="4.776" height="3.615" x="660.285" y="210.422" fill="#BEBEA2"/>
  <rect width="4.776" height="3.615" x="675.634" y="210.422" fill="#BEBEA2"/>
  <rect width="4.776" height="3.615" x="691.14" y="210.422" fill="#BEBEA2"/>
  <rect width="4.776" height="3.615" x="652.611" y="265.531" fill="#BEBEA2"/>
  <rect width="4.776" height="3.615" x="667.959" y="265.531" fill="#BEBEA2"/>
  <rect width="4.776" height="3.615" x="683.466" y="265.531" fill="#BEBEA2"/>
  <rect width="4.776" height="3.615" x="660.285" y="265.531" fill="#BEBEA2"/>
  <rect width="4.776" height="3.615" x="675.634" y="265.531" fill="#BEBEA2"/>
  <rect width="4.776" height="3.615" x="691.14" y="265.531" fill="#BEBEA2"/>
  <rect width="4.776" height="3.615" x="652.611" y="221.444" fill="#BEBEA2"/>
  <rect width="4.776" height="3.615" x="667.959" y="221.444" fill="#BEBEA2"/>
  <rect width="4.776" height="3.615" x="683.466" y="221.444" fill="#BEBEA2"/>
  <rect width="4.776" height="3.615" x="660.285" y="221.444" fill="#BEBEA2"/>
  <rect width="4.776" height="3.615" x="675.634" y="221.444" fill="#BEBEA2"/>
  <rect width="4.776" height="3.615" x="691.14" y="221.444" fill="#BEBEA2"/>
  <rect width="4.776" height="3.615" x="652.611" y="276.553" fill="#BEBEA2"/>
  <rect width="4.776" height="3.615" x="667.959" y="276.553" fill="#BEBEA2"/>
  <rect width="4.776" height="3.615" x="683.466" y="276.553" fill="#BEBEA2"/>
  <rect width="4.776" height="3.615" x="660.285" y="276.553" fill="#BEBEA2"/>
  <rect width="4.776" height="3.615" x="675.634" y="276.553" fill="#BEBEA2"/>
  <rect width="4.776" height="3.615" x="691.14" y="276.553" fill="#BEBEA2"/>
  <rect width="990" height="120" y="340" fill="#1E3E51"/>
  <defs>
    <clipPath id="a">
      <rect width="990" height="352.7" fill="#fff"/>
    </clipPath>
  </defs>
</svg>