<svg width="1139" height="508" viewBox="0 0 1139 508" fill="none" xmlns="http://www.w3.org/2000/svg">
<path d="M1130.31 499.375C1130.31 499.375 281.694 0.375491 141.698 0.375488L100.604 0.375489C63.5068 0.375487 31.2767 25.8781 22.747 61.9809L1.42813 152.214C-2.46937 168.711 7.52462 185.063 24.1204 188.513C183.192 221.582 932.043 381.394 1130.31 499.375Z" fill="url(#paint0_linear_103_14)" fill-opacity="0.29"/>
<path d="M1138.2 499.384C1137.33 495.616 1133.58 493.263 1129.81 494.128C1126.04 494.994 1123.69 498.75 1124.55 502.517C1125.42 506.285 1129.17 508.638 1132.94 507.773C1136.71 506.907 1139.06 503.151 1138.2 499.384Z" fill="#F7F9AB"/>
<defs>
<linearGradient id="paint0_linear_103_14" x1="599.782" y1="53.39" x2="599.782" y2="384.259" gradientUnits="userSpaceOnUse">
<stop stop-color="#F5F5C9"/>
<stop offset="1" stop-color="#F5F5C9" stop-opacity="0"/>
</linearGradient>
</defs>
</svg>