<svg width="800" height="400" viewBox="0 0 800 400" fill="none" xmlns="http://www.w3.org/2000/svg">
<path d="M249.5 0.557373L272.256 0.557559V163.124L249.5 172.947V0.557373Z" fill="#584646"/>
<path d="M734.164 2.45383L756.92 2.45388V164.35H734.164V2.45383Z" fill="#584646"/>
<path d="M248.568 77.5977H757.957L602.164 200.301H11.3789L248.568 77.5977Z" fill="#C4C4C4"/>
<rect x="11.3789" y="200.301" width="590.785" height="56.2715" fill="#A6A9AF"/>
<path d="M602.163 200.242L757.518 78.3793L757.518 131.134L602.163 256.572L602.163 200.242Z" fill="#7A7777"/>
<path d="M274.862 153.301C270.929 150.82 152.901 132.264 149.631 129.522C162.722 121.408 175.06 112.14 186.496 101.829C195.466 93.6294 197.426 89.5571 209.314 87.8414C214.144 87.2971 218.284 87.1524 231.393 91.9757C232.352 96.482 249.864 99.4794 254.163 100.933C266.665 105.171 268.652 105.068 283.832 105.068C283.832 105.564 304.531 99.7481 304.531 100.244C313.073 112.647 282.907 149.463 274.862 153.301Z" fill="#BBB0BA"/>
<path d="M299.756 86.3049C299.756 86.6357 297.128 93.0851 296.251 95.421C294.913 98.5562 299.598 98.9834 302.392 99.9894C303.048 100.231 303.772 100.417 304.462 100.678C304.909 100.857 305.297 101.156 305.584 101.542C305.871 101.928 306.045 102.385 306.088 102.863C306.131 103.342 306.04 103.823 305.826 104.253C305.612 104.684 305.284 105.047 304.876 105.302C301.102 107.734 298.045 110.987 295.14 114.377C292.236 117.767 289.42 121.178 289.434 126.09C289.479 127.239 289.242 128.382 288.744 129.419C287.537 131.672 284.011 131.093 283.818 128.543C283.811 128.436 283.811 128.327 283.818 128.22C284.115 121.935 279.471 119.545 275.393 116.651C275.146 116.478 274.933 116.261 274.765 116.01C274.482 115.404 274.296 114.758 274.213 114.094C274.462 110.098 272.385 107.328 269.232 104.964C263.898 100.975 258.606 96.9369 253.01 93.3125C250.844 91.9344 248.525 90.1705 249.257 87.1594C249.988 84.1482 252.783 83.4179 255.405 83.5763C259.02 83.7899 259.876 82.4945 259.186 79.1113C258.668 76.5893 261.787 72.2209 261.946 72.1175C262.636 71.8074 281.589 67.0117 285.446 67.115C285.826 67.1305 286.198 67.2241 286.54 67.3899C286.882 67.5557 287.185 67.7902 287.432 68.0787C287.679 68.3672 287.863 68.7034 287.974 69.0664C288.085 69.4294 288.119 69.8113 288.075 70.1881C287.799 72.2553 288.027 75.3353 292.215 77.9123C291.711 78.6496 300.239 81.0268 299.756 86.3049Z" fill="#F2C08D"/>
<path d="M262.387 74.2329C258.806 79.5937 262.325 83.79 265.265 88.1034C261.815 89.1852 259.345 87.0216 256.571 87.187C254.501 87.311 251.638 86.2154 250.72 88.5651C249.65 91.273 252.831 91.8932 254.487 92.8647C261.76 97.1437 268.287 102.387 274.876 107.597C278.084 110.139 278.74 112.606 275.249 115.369C273.696 117.264 271.744 116.54 269.922 116.058C259.37 113.403 248.98 110.143 238.804 106.294C233.132 104.096 228.834 100.513 227.875 94.0499C227.875 91.6933 227.523 89.3643 227.364 87.0284C226.964 81.0406 229.744 76.8168 235.113 74.226C237.769 70.5878 239.508 65.9988 243.137 63.3666C244.517 62.3744 258.813 55.8698 263.926 66.8807C264.554 68.0039 265.251 69.0995 265.175 70.4638C265.009 72.2622 263.498 73.0959 262.387 74.2329Z" fill="#392416"/>
<path d="M278.766 165.835C277.477 165.952 276.161 165.447 275.282 164.498C274.226 163.189 274.626 161.79 275.013 160.364C275.461 159.323 283.141 114.005 304.53 100.224C309.622 95.8964 328.679 90.5769 337.166 89.9637C345.239 85.7536 713.15 77.9372 720.794 94.9223C737.345 93.1627 672.811 150.124 664.743 159.89C642.663 181.97 344.426 165.147 278.766 165.835Z" fill="#FBF6F8"/>
<path d="M125.412 142.641C133.05 137.467 141.488 133.766 149.63 129.549C150.479 129.703 151.353 129.627 152.162 129.329C164.927 122.686 244.475 121.432 249.167 124.395C258.875 129.474 279.753 149.773 275.179 153.067C228.688 154.093 125.502 156.698 123.238 156.147C120.071 150.91 120.52 148.126 125.412 142.641Z" fill="#DFD3DD"/>
<path d="M0 98.5903L22.7562 98.5902V297.213H0V98.5903Z" fill="#584646"/>
<path d="M579.406 94.939L602.162 94.9391V299.558H579.406V94.939Z" fill="#584646"/>
</svg>