<svg xmlns="http://www.w3.org/2000/svg" fill="none" viewBox="0 0 1872 1080">
  <path fill="#2D6589" d="M1467.42 0H1872v1080l-404.58-371.5V0Z"/>
  <path fill="#083468" d="M1467.42 704.501 0 705v375h1872l-404.58-375.499Z"/>
  <path fill="#1B3B60" d="m1561.32 252 176.82 90.831v616.35l-176.82-163.916V252Z"/>
  <path fill="#E6E6E6" d="M1598.38 402.814s-4.6 6.261 52.21 7.415c0 0 49.75-.989 50.73-8.734 0 0-76.35-2.142-102.94 1.319Z"/>
  <path fill="url(#a)" d="M1649.36 407.428c5.76 0 10.42-1.845 10.42-4.12 0-2.275-4.66-4.12-10.42-4.12s-10.43 1.845-10.43 4.12c0 2.275 4.67 4.12 10.43 4.12Z"/>
  <path fill="#B3B3B3" d="M1598.38 403.308s1.64-13.018 14.44-16.643c0 0 16.92-2.966 24.8-7.251 0 0 4.27-1.483 4.27-9.392 0 0 .16-2.802 2.79-2.802h9.85s2.79.659 3.12 2.802c0 0 .08 6.673 4.84 9.145 0 0 13.3 4.237 23.32 7.25 1.64.495 15.1 2.802 15.43 15.161 0 0-73.8-3.049-102.86 1.73Z"/>
  <path fill="#fff" d="M1650.59 299h-2.63v68.22h2.63V299Z"/>
  <path fill="#1C3B60" d="M.001 0v113H1286.61v323.9H.001v268.9H1469.42V0H.001Z"/>
  <defs>
    <radialGradient id="a" cx="0" cy="0" r="1" gradientTransform="matrix(7.84178 0 0 8.57835 1649.36 403.133)" gradientUnits="userSpaceOnUse">
      <stop offset=".32" stop-color="#fff"/>
      <stop offset=".46" stop-color="#FFFFF5"/>
      <stop offset=".7" stop-color="#FFFFDA"/>
      <stop offset=".81" stop-color="#FFC"/>
    </radialGradient>
  </defs>
</svg>