<svg xmlns="http://www.w3.org/2000/svg" fill="none" viewBox="0 0 961 1080">
  <path fill="#2D6589" d="M555.423 0h404.578v1080L555.423 708.5V0Z"/>
  <path fill="#083468" d="M555.422 704.501 0 705v375h960.001L555.422 704.501Z"/>
  <path fill="#1B3B60" d="m649.325 252 176.816 90.831v616.35L649.325 795.265V252Z"/>
  <path fill="#E6E6E6" d="M686.375 402.813s-4.597 6.262 52.213 7.416c0 0 49.75-.989 50.735-8.734 0 0-76.349-2.142-102.948 1.318Z"/>
  <path fill="url(#a)" d="M737.357 407.427c5.758 0 10.426-1.844 10.426-4.119 0-2.275-4.668-4.12-10.426-4.12s-10.426 1.845-10.426 4.12c0 2.275 4.668 4.119 10.426 4.119Z"/>
  <path fill="#B3B3B3" d="M686.375 403.308s1.642-13.018 14.449-16.643c0 0 16.912-2.966 24.793-7.251 0 0 4.269-1.483 4.269-9.392 0 0 .164-2.802 2.791-2.802h9.852s2.791.659 3.119 2.802c0 0 .082 6.673 4.844 9.145 0 0 13.3 4.237 23.315 7.25 1.642.495 15.106 2.802 15.434 15.161 0 0-73.804-3.049-102.866 1.73Z"/>
  <path fill="#fff" d="M738.587 299h-2.627v68.22h2.627V299Z"/>
  <path fill="#1C3B60" d="M.001 0v113h374.61v323.9H.001v268.9H557.42V0H.001Z"/>
  <defs>
    <radialGradient id="a" cx="0" cy="0" r="1" gradientTransform="matrix(7.84178 0 0 8.57835 737.357 403.133)" gradientUnits="userSpaceOnUse">
      <stop offset=".32" stop-color="#fff"/>
      <stop offset=".46" stop-color="#FFFFF5"/>
      <stop offset=".7" stop-color="#FFFFDA"/>
      <stop offset=".81" stop-color="#FFC"/>
    </radialGradient>
  </defs>
</svg>
