<svg xmlns="http://www.w3.org/2000/svg" width="960" height="771" viewBox="0 0 960 771" fill="none">
<rect width="960" height="690" fill="url(#a)" y="81" />
<path fill="#4C5567" d="M222.462 232.019C171.613 278.563 52.9671 286.579 0 284.769V139.705C66.9071 139.706 143.086 114.819 202.674 144.748C219.584 153.241 190.082 175.39 205.672 191.292C233.255 204.092 228.258 226.588 222.462 232.019Z" />
<g clip-path="url(#clip0_67_85)">
<path fill="#F3F4CA" fill-opacity="0.8" d="M101.571 17.375C101.597 17.4251 101.613 17.4795 101.618 17.5354C101.699 23.2424 101.773 28.9561 101.84 34.6764C101.805 34.8421 101.741 35.0004 101.652 35.1442H90.3616V17.395L101.571 17.375Z" />
<path fill="#F3F4CA" fill-opacity="0.29" d="M111.68 35.7523H105.102V18.0432H111.68V35.7523Z" />
<path fill="#F3F4CA" fill-opacity="0.8" d="M87.1865 19.0189V35.2311H81.5346C81.4579 34.9848 81.404 34.732 81.3735 34.4759C81.3735 29.1031 81.4004 23.7324 81.4541 18.364C81.4752 18.0326 81.5132 17.7025 81.5682 17.375H87.0455L87.1865 19.0189Z" />
<path fill="#54627F" d="M92.2007 0L74.3323 15.0494L104.887 15.2833L97.2216 0H92.2007Z" />
<path fill="#2F304E" d="M99.2287 0H97.2217L104.887 15.2833L117.876 15.29L99.2287 0Z" />
<path fill="#636D87" d="M101.652 15.0493H78.145V45.4288H101.652V15.0493Z" />
<path fill="#2F304E" d="M113.13 15.0427H100.564V45.4556H113.13V15.0427Z" />
<path fill="#F3F4CA" d="M87.1867 17.375H81.5684V35.2311H87.1867V17.375Z" />
<path fill="#F3F4CA" opacity="0.52" d="M100.377 17.395H90.3616V35.1442H100.377V17.395Z" />
<path fill="#F3F4CA" opacity="0.78" d="M111.6 17.375H104.793V35.2979H111.6V17.375Z" />
<path fill="#2F304E" d="M65.7269 49.0174C65.7269 49.0174 76.205 53.6018 73.5804 63.4787L52 192.027H141L119.406 62.8773C119.406 62.8773 118.339 49.1644 131.059 49.1644C131.059 49.1644 64.6932 47.9749 65.7269 49.0174Z" />
<path fill="#9D9D9C" d="M131.066 45.449H63.438V49.8328H131.066V45.449Z" />
<path fill="#6E6F87" d="M73.5804 63.4855L87.5356 63.3318L82.2797 191.86L52 192L73.5804 63.4855Z" />
<path fill="#54627F" d="M87.5356 63.3318H105.464L110.72 191.86H82.2798L87.5356 63.3318Z" />
</g>
<linearGradient id="a" x1="480" y1="81" x2="480" y2="771" gradientUnits="userSpaceOnUse">
<stop stop-color="#022357"/>
<stop offset="1" stop-color="#9FBAD5"/>
</linearGradient>
</svg>
