<svg xmlns="http://www.w3.org/2000/svg" width="960" height="740" viewBox="0 0 960 740" fill="none" >
<rect width="960" height="690" fill="url(#paint0_linear_67_84)" y="50" />
<path fill="#BAB4AC" d="M379.557 740C379.557 740 354.849 661.597 369.813 596.773C369.813 596.773 376 562.5 424 546C424 546 444.632 540.708 517.69 507.42C517.69 507.42 554.659 490.776 585.467 447.851C585.467 447.851 623.5 389.5 555.539 369.01C555.539 369.01 495.684 348 495.684 312.946C495.684 312.946 488.5 263 560.82 252.501L960 195V740H379.557Z" />
<g clip-path="url(#clip0_67_84)">
<path fill="#F3F4CA" fill-opacity="0.8" d="M724.192 25.791C724.231 25.8653 724.255 25.9461 724.264 26.0291C724.386 34.5004 724.498 42.9816 724.6 51.4728C724.547 51.7187 724.45 51.9537 724.314 52.1672H707.189V25.8207L724.192 25.791Z" />
<path fill="#F3F4CA" fill-opacity="0.29" d="M739.526 53.0699H729.548V26.783H739.526V53.0699Z" />
<path fill="#F3F4CA" fill-opacity="0.8" d="M702.373 28.2312V52.2962H693.8C693.683 51.9306 693.602 51.5554 693.555 51.1752C693.555 43.1999 693.596 35.2278 693.678 27.2591C693.71 26.7672 693.767 26.2772 693.851 25.791H702.159L702.373 28.2312Z" />
<path fill="#9D9D9C" d="M768.931 67.4631H666.35V73.9704H768.931V67.4631Z" />
<path fill="#2F304E" d="M669.822 72.7604C669.822 72.7604 685.715 79.5653 681.734 94.2264L649 285.04H784L751.245 93.3337C751.245 93.3337 749.626 72.9786 768.921 72.9786C768.921 72.9786 668.254 71.213 669.822 72.7604Z" />
<path fill="#636D87" d="M724.314 22.3389H688.658V67.4334H724.314V22.3389Z"/>
<path fill="#2F304E" d="M741.725 22.3291H722.665V67.4732H741.725V22.3291Z"/>
<path fill="#54627F" d="M709.979 0L682.875 22.3389L729.222 22.6861L717.595 0H709.979Z" />
<path fill="#2F304E" d="M720.639 0H717.594L729.222 22.6861L748.924 22.696L720.639 0Z"/>
<path fill="#F9FBBA" d="M702.373 25.791H693.851V52.2962H702.373V25.791Z"/>
<path fill="#CBCC95" d="M722.38 25.8208H707.189V52.1673H722.38V25.8208Z"/>
<path fill="#A1A289" d="M739.404 25.791H729.08V52.3954H739.404V25.791Z"/>
<path fill="#6E6F87" d="M681.734 94.2362L702.902 94.0081L694.93 284.792L649 285L681.734 94.2362Z"/>
<path fill="#54627F" d="M702.902 94.0081H730.098L738.07 284.792H694.93L702.902 94.0081Z"/>
</g>
<linearGradient id="paint0_linear_67_84" x1="480" y1="50" x2="480" y2="740" gradientUnits="userSpaceOnUse">
<stop stop-color="#022357"/>
<stop offset="1" stop-color="#9FBAD5"/>
</linearGradient>
</svg>