 <svg xmlns="http://www.w3.org/2000/svg" width="30%" height="30%" fill="none" viewBox="0 0 151 86">
  <path fill="#34669A" d="M116.683 11.3389C116.683 11.3389 124.336 -2.49229 139.821 2.13795C139.821 2.13795 149.822 5.4024 150.392 12.3452C150.392 12.3452 151.102 17.2884 146.254 20.69C146.254 20.69 140.758 23.4241 132.894 23.2612C125.03 23.0982 121.636 27.0223 120.568 28.6933C119.499 30.3643 111.503 25.3202 116.683 11.3389Z"/>
  <path fill="#6599CC" d="M125.199 3.297C124.917 3.375 126.215 5.692 126.215 5.692 126.346 6.025 126.543 6.329 126.795 6.587 127.046 6.846 127.347 7.053 127.68 7.197 128.013 7.341 128.372 7.419 128.736 7.427 129.1 7.436 129.462 7.373 129.801 7.244L133.005 6.018C133.242 5.928 133.459 5.792 133.644 5.62 133.828 5.447 133.975 5.24 134.078 5.011 134.18 4.783 134.236 4.536 134.241 4.286 134.246 4.037 134.201 3.788 134.108 3.556 133.398 1.771 130.814 1.409 129.524 1.585 127.735 2.102 125.381 3.1 125.199 3.297ZM116.364 12.283C116.615 11.317 117.11 10.427 117.802 9.697 117.802 9.697 119.285 10.491 120.578 11.3 120.942 11.526 121.227 11.854 121.398 12.241 121.569 12.628 121.617 13.056 121.536 13.471 121.354 14.399 120.995 15.62 120.301 16.386 120.037 16.676 119.667 16.851 119.271 16.874 118.875 16.897 118.487 16.765 118.19 16.507 117.48 15.889 116.614 14.668 116.364 12.283ZM123.381 11.963C123.381 11.963 119.565 8.067 119.612 7.625 119.789 7.131 122.702 4.735 122.853 4.681 123.053 4.658 127.241 9.798 127.241 9.798 127.495 10.094 127.618 10.476 127.584 10.861 127.55 11.247 127.361 11.603 127.059 11.851L126.592 12.237C126.129 12.617 125.531 12.802 124.929 12.75 124.326 12.699 123.77 12.416 123.381 11.963V11.963Z"/>
  <path fill="#3C3C3B" d="M139.483 19.2103L146.001 17.3531C146.456 17.3013 146.887 17.1256 147.246 16.8458C147.605 16.566 147.876 16.1933 148.03 15.77C148.124 15.5264 148.115 15.2564 148.006 15.0189C147.898 14.7814 147.697 14.5958 147.449 14.5025L144.51 13.4678C144.05 13.31 143.55 13.3089 143.089 13.4648C142.629 13.6206 142.236 13.9243 141.974 14.3266L139.364 19.0681C139.356 19.0855 139.354 19.1047 139.356 19.1234C139.359 19.1422 139.367 19.1599 139.379 19.1746C139.391 19.1893 139.407 19.2004 139.426 19.2067C139.444 19.213 139.464 19.2143 139.483 19.2103V19.2103Z"/>
  <path fill="#C6C6C6" d="M140.638 9.26444C141.137 7.91417 140.179 7.60376 138.751 7.09676C137.324 6.58976 135.973 6.06207 135.471 7.42528C135.247 8.09104 135.296 8.81625 135.609 9.447C135.921 10.0778 136.472 10.5644 137.144 10.8037C137.816 11.043 138.557 11.0161 139.21 10.7287C139.862 10.4414 140.374 9.9161 140.638 9.26444V9.26444Z"/>
  <path fill="#1D1D1B" d="M139.661 8.50653C140.012 7.56237 139.342 7.34509 138.342 6.99071C137.342 6.63632 136.397 6.27677 136.046 7.22092C135.871 7.69086 135.894 8.20969 136.109 8.66326C136.324 9.11684 136.715 9.46801 137.194 9.63952C137.673 9.81103 138.203 9.78883 138.665 9.57781C139.128 9.36679 139.486 8.98423 139.661 8.51429V8.50653Z"/>
  <path fill="#fff" d="M138.518 7.65548C138.612 7.40167 138.244 7.03882 137.698 6.84502C137.151 6.65121 136.632 6.69984 136.538 6.95365C136.445 7.20745 136.812 7.57032 137.359 7.76412C137.905 7.95793 138.424 7.90928 138.518 7.65548Z"/>
  <path fill="url(#a)" d="M136.047 7.22095C136.047 7.22095 137.504 9.19462 138.261 9.10667C138.261 9.10667 138.715 9.36535 138.451 9.57487C138.451 9.57487 135.672 9.6861 136.047 7.22095Z"/>
  <path fill="#6599CC" d="M125.613 15.858C125.613 16.875 126.578 16.932 127.742 16.932 128.906 16.932 129.832 16.875 129.832 15.858 129.832 14.842 129.544 14.06 128.378 14.06 127.212 14.06 125.613 14.844 125.613 15.858ZM128.906 18.665C128.906 19.327 129.482 19.366 130.176 19.366 130.87 19.366 131.418 19.327 131.418 18.665 131.418 18.003 131.247 17.493 130.553 17.493 129.859 17.493 128.906 17.998 128.906 18.665Z"/>
  <path fill="#34669A" d="M98.0261 44.2476L113.068 34.2577C113.068 34.2577 114.485 46.8369 108.455 60.125C108.455 60.125 100.522 76.5429 94.8726 79.797C94.8726 79.797 92.2997 81.243 91.2415 77.5983C91.2415 77.5983 88.6581 71.7057 92.5609 61.5477C92.5609 61.5477 96.4374 54.579 97.2397 49.4185L98.0261 44.2476Z"/>
  <path fill="#6599CC" d="M108.016 49.789 107.689 53.369C107.645 53.799 107.467 54.206 107.18 54.534 106.892 54.862 106.509 55.095 106.082 55.203 103.902 55.748 99.677 56.082 99.627 55.979 99.411 55.469 99.357 54.908 99.472 54.368 99.587 53.828 99.865 53.335 100.271 52.952 101.493 51.726 105.182 50.684 108.016 49.789ZM106.739 58.006 105.81 59.481C105.735 59.602 105.626 59.699 105.496 59.76 104.483 60.249 99.857 62.43 97.667 62.559 97.548 62.564 97.43 62.542 97.322 62.494 97.214 62.447 97.119 62.376 97.044 62.286 96.969 62.196 96.916 62.09 96.89 61.977 96.864 61.863 96.865 61.746 96.893 61.633 97.176 60.479 97.751 58.387 98.194 58.294 99.369 58.035 102.591 57.494 105.942 56.873 106.088 56.846 106.239 56.862 106.376 56.917 106.514 56.973 106.632 57.066 106.716 57.186 106.801 57.306 106.848 57.447 106.852 57.593 106.856 57.738 106.817 57.882 106.739 58.006ZM97.893 69.507C98.927 69.481 98.962 68.534 98.93 67.391 98.898 66.247 98.816 65.347 97.779 65.373 96.742 65.399 95.956 65.702 95.985 66.845 96.014 67.988 96.858 69.535 97.893 69.507ZM100.667 66.206C101.343 66.188 101.367 65.624 101.348 64.944 101.33 64.264 101.277 63.726 100.601 63.744 99.926 63.762 99.411 63.943 99.43 64.623 99.448 65.304 99.994 66.224 100.667 66.206Z"/>
  <path fill="#34669A" d="M40.044 52.7606C40.044 52.7606 53.1407 56.0018 63.7648 54.3437C63.7648 54.3437 64.6014 59.6387 47.14 71.7601C47.14 71.7601 32.8241 81.913 21.8649 86.0001C21.8649 86.0001 18.6059 80.3093 27.4329 69.4657C27.4434 69.4735 37.8775 59.6129 40.044 52.7606Z"/>
  <path fill="#6599CC" d="M42.72 65.353C43.353 66.68 44.567 66.939 47.683 68.17 50.884 69.432 50.322 68.816 51.552 67.981 52.723 67.182 55.077 65.094 52.964 64.538 43.099 61.946 41.78 63.379 42.72 65.353ZM38.928 69.843C39.286 70.971 40.231 71.305 42.588 72.616 45.007 73.962 44.627 73.411 45.699 72.875 46.723 72.358 48.834 70.938 47.206 70.273 39.606 67.161 38.389 68.18 38.928 69.843ZM33.262 78.17C34.3 78.144 34.331 77.195 34.3 76.054 34.268 74.913 34.186 74.008 33.152 74.036 32.117 74.065 31.326 74.365 31.357 75.505 31.389 76.646 32.228 78.196 33.262 78.17ZM36.038 74.869C36.711 74.851 36.735 74.287 36.717 73.607 36.698 72.926 36.645 72.388 35.97 72.406 35.294 72.425 34.78 72.606 34.798 73.286 34.817 73.966 35.363 74.885 36.038 74.869Z"/>
  <path fill="#34669A" d="M29.2251 44.1066C29.2251 44.1066 30.7074 32.7001 37.2638 21.9156C37.2638 21.9156 31.9757 21.9156 19.6395 29.7606C19.6395 29.7606 8.34898 38.0668 1.93818 45.9881C1.93818 45.9881 4.21776 51.2798 13.9495 48.1084C13.9505 48.1239 24.36 42.8623 29.2251 44.1066Z"/>
  <path fill="#6599CC" d="M20.339 39.397C19.487 39.793 20.747 40.351 22.128 42.6 23.136 44.255 22.492 44.691 23.534 44.389 24.065 44.235 26.566 44.015 27.198 43.909 27.633 43.826 21.252 38.967 20.339 39.397ZM16.595 40.625C16.658 41.373 17.283 41.86 18.426 43.57 19.087 44.557 19.07 45.058 19.802 44.981 20.653 44.892 21.891 44.789 21.825 44.643 20.718 42.083 16.492 39.503 16.595 40.625ZM15.337 44.09C15.329 44.491 15.588 44.759 16.218 45.57 16.847 46.38 16.795 46.172 17.209 46.2 17.623 46.228 18.458 46.181 18.01 45.697 15.866 43.408 15.363 43.493 15.337 44.09ZM24.56 38.523C25.59 38.425 25.546 37.479 25.448 36.342 25.35 35.206 25.192 34.309 24.159 34.407 23.126 34.505 22.363 34.857 22.471 35.993 22.58 37.129 23.533 38.618 24.56 38.523ZM27.097 35.044C27.77 34.981 27.754 34.417 27.688 33.739 27.622 33.062 27.532 32.528 26.859 32.592 26.187 32.655 25.686 32.87 25.752 33.548 25.818 34.225 26.427 35.105 27.097 35.044Z"/>
  <path fill="url(#b)" d="M67.8738 43.2771L56.7906 46.2699L54.9565 53.7715C57.3658 53.9163 59.5455 53.6551 63.2162 53.4067C66.7048 53.1093 69.853 52.372 73.17 51.8547L76.0728 51.2106L67.8738 43.2771Z"/>
  <path fill="url(#c)" d="M89.9377 37.7306L101.129 35.1516L106.404 40.8747C104.36 42.1336 102.319 42.9281 98.9756 44.4344C95.7681 45.8119 92.6445 46.6436 89.48 47.7476L86.6174 48.5457L89.9377 37.7306Z"/>
  <path fill="url(#d)" d="M81.6828 30.6261L70.4109 33.6445L67.5107 44.5579L75.7018 52.4758L86.793 49.483L90.1438 38.0922L81.6828 30.6261Z"/>
  <path fill="url(#e)" d="M76.4558 11.8461L65.362 14.8389L62.4619 25.7523L70.653 33.6729L81.7441 30.6774L84.6469 19.764L76.4558 11.8461Z"/>
  <path fill="url(#f)" d="M95.855 16.7308L84.4277 19.6115L81.5276 30.5249L89.7186 38.4455L100.932 35.6036L104.104 24.6118L95.855 16.7308Z"/>
  <path fill="url(#g)" d="M62.5672 25.7524L51.4734 28.7479L48.5732 39.6613L56.7643 47.5793L67.8555 44.5864L70.7582 33.673L62.5672 25.7524Z"/>
  <path fill="url(#h)" d="M42.9742 20.8787L37.0031 22.6357L30.7058 35.393L37.5151 42.7055L48.6089 39.7126L51.509 28.7992L42.9742 20.8787Z"/>
  <path fill="url(#i)" d="M31.3415 36.0184C31.3415 36.0184 30.466 36.5108 29.4377 46.1639C31.9104 48.0496 34.8018 49.0157 35.7834 49.7064C36.2065 47.8398 37.4756 42.655 37.4756 42.655L31.3415 36.0184Z"/>
  <path fill="url(#j)" d="M36.6296 22.7453C39.1127 22.2354 43.1324 20.8868 43.1324 20.8868C43.1324 20.8868 45.4887 15.1529 45.9356 13.4126"/>
  <path fill="url(#k)" d="M48.6856 39.5441L37.4749 42.655L35.3596 51.0386L44.4743 54.0754L54.977 54.5126L56.7235 47.425L48.6856 39.5441Z"/>
  <path fill="url(#l)" d="M57.3911 6.776C53.433 8.54515 49.3954 11.1254 45.7239 13.4126C45.0917 15.8239 42.9741 21.0861 42.9741 21.0861L51.6466 28.967L62.4343 25.8561L65.5637 14.6966L57.3911 6.776Z"/>
  <path fill="url(#m)" d="M57.2183 6.95727L65.4067 14.8752L76.6076 11.9608L79.5689 1.17639L67.5416 3.29705"/>
  <path fill="url(#n)" d="M89.7873 1.51735C91.1516 1.46044 79.4086 1 79.4086 1L76.5059 11.9134L84.6864 19.834L95.7696 16.8411L98.6724 5.92772C98.6724 5.92772 96.4927 1.46044 89.7873 1.51735Z"/>
  <path fill="url(#o)" d="M101.978 4.71973L98.6428 5.84236L95.7427 16.7558L103.931 24.6763L115.025 21.6835V12.2212L101.978 4.71973Z"/>
  <path fill="url(#p)" d="M114.926 21.7081L103.832 24.7036L100.932 35.617L105.064 39.5565L115.224 34.1865L121.135 27.6861L114.926 21.7081Z"/>
  <path fill="url(#q)" d="M95.0496 2.5625L98.5751 5.95111L102.705 4.85693"/>
  <path stroke="#166780" stroke-linecap="round" stroke-linejoin="round" stroke-miterlimit="10" stroke-width="4" d="M28.5908 47.5104C28.5908 47.5104 45.0099 61.0649 81.1043 50.2627C81.1043 50.2627 109.46 41.7939 120.482 26.8694C120.482 26.8694 113.57 26.0044 113.475 19.6695C113.394 14.0744 114.853 12.168 114.853 12.168"/>
  <path stroke="#166780" stroke-linecap="round" stroke-miterlimit="10" stroke-width="1" d="M29.4063 46.9946C29.4063 46.9946 27.8836 19.2157 57.2648 6.94166C57.2648 6.94166 90.4539 -9.50475 113.977 12.454"/>
  <defs>
    <radialGradient id="b" cx="0" cy="0" r="1" gradientTransform="rotate(-15.413 179.03 -218.787) scale(11.6097 11.4131)" gradientUnits="userSpaceOnUse">
      <stop stop-color="#227696" stop-opacity=".9"/>
      <stop offset=".02" stop-color="#227596" stop-opacity=".9"/>
      <stop offset=".75" stop-color="#1A4C9C"/>
    </radialGradient>
    <radialGradient id="c" cx="0" cy="0" r="1" gradientTransform="matrix(-11.3319 2.54877 -2.50332 -11.12985 91.081 33.059)" gradientUnits="userSpaceOnUse">
      <stop stop-color="#227696" stop-opacity=".9"/>
      <stop offset=".02" stop-color="#227596" stop-opacity=".9"/>
      <stop offset=".75" stop-color="#1A4C9C"/>
    </radialGradient>
    <radialGradient id="d" cx="0" cy="0" r="1" gradientTransform="rotate(-15.413 190.2 -269.642) scale(16.4003 16.1225)" gradientUnits="userSpaceOnUse">
      <stop offset=".18" stop-color="#227596" stop-opacity=".9"/>
      <stop offset=".59" stop-color="#1A4C9C"/>
    </radialGradient>
    <radialGradient id="e" cx="0" cy="0" r="1" gradientTransform="rotate(-15.413 118.437 -260.021) scale(10.7163 10.5347)" gradientUnits="userSpaceOnUse">
      <stop stop-color="#99D0BD" stop-opacity=".6"/>
      <stop offset=".06" stop-color="#83C0B6" stop-opacity=".67"/>
      <stop offset=".22" stop-color="#4E97A4" stop-opacity=".85"/>
      <stop offset=".36" stop-color="#2D7F9A" stop-opacity=".96"/>
      <stop offset=".48" stop-color="#227696"/>
      <stop offset=".62" stop-color="#206A98"/>
      <stop offset="1" stop-color="#1A4C9C"/>
    </radialGradient>
    <radialGradient id="f" cx="0" cy="0" r="1" gradientTransform="rotate(-15.413 145.604 -328.08) scale(10.7163 10.5347)" gradientUnits="userSpaceOnUse">
      <stop stop-color="#99D0BD" stop-opacity=".6"/>
      <stop offset=".06" stop-color="#83C0B6" stop-opacity=".67"/>
      <stop offset=".22" stop-color="#4E97A4" stop-opacity=".85"/>
      <stop offset=".36" stop-color="#2D7F9A" stop-opacity=".96"/>
      <stop offset=".48" stop-color="#227696"/>
      <stop offset=".62" stop-color="#206A98"/>
      <stop offset="1" stop-color="#1A4C9C"/>
    </radialGradient>
    <radialGradient id="g" cx="0" cy="0" r="1" gradientTransform="rotate(-15.413 163.077 -202.156) scale(10.7163 10.5347)" gradientUnits="userSpaceOnUse">
      <stop stop-color="#99D0BD"/>
      <stop offset=".48" stop-color="#227696"/>
      <stop offset=".62" stop-color="#206A98"/>
      <stop offset="1" stop-color="#1A4C9C"/>
    </radialGradient>
    <radialGradient id="h" cx="0" cy="0" r="1" gradientTransform="matrix(13.55327 -3.7365 3.6732 13.32364 40.372 31.315)" gradientUnits="userSpaceOnUse">
      <stop offset=".03" stop-color="#99D0BD"/>
      <stop offset=".14" stop-color="#73B3B1"/>
      <stop offset=".29" stop-color="#4792A2"/>
      <stop offset=".41" stop-color="#2C7E99"/>
      <stop offset=".48" stop-color="#227696"/>
      <stop offset=".62" stop-color="#206A98"/>
      <stop offset="1" stop-color="#1A4C9C"/>
    </radialGradient>
    <radialGradient id="i" cx="0" cy="0" r="1" gradientTransform="matrix(6.24209 -1.7209 2.3909 8.67234 32.95 42.291)" gradientUnits="userSpaceOnUse">
      <stop stop-color="#227696" stop-opacity=".6"/>
      <stop offset=".57" stop-color="#1A4C9C" stop-opacity=".9"/>
    </radialGradient>
    <radialGradient id="j" cx="0" cy="0" r="1" gradientTransform="matrix(4.43142 -1.23032 1.2168 4.3827 40.871 17.174)" gradientUnits="userSpaceOnUse">
      <stop offset=".11" stop-color="#EDEDED" stop-opacity=".6"/>
      <stop offset=".8" stop-color="#227696"/>
      <stop offset="1" stop-color="#166780"/>
    </radialGradient>
    <radialGradient id="k" cx="0" cy="0" r="1" gradientTransform="matrix(10.22956 -2.8202 2.77242 10.05623 61.897 32.223)" gradientUnits="userSpaceOnUse">
      <stop offset=".3" stop-color="#227696" stop-opacity=".9"/>
      <stop offset=".37" stop-color="#217097" stop-opacity=".91"/>
      <stop offset=".89" stop-color="#1A4C9C" stop-opacity=".95"/>
    </radialGradient>
    <radialGradient id="l" cx="0" cy="0" r="1" gradientTransform="matrix(30.06284 -8.28808 8.1477 29.55364 54.328 17.174)" gradientUnits="userSpaceOnUse">
      <stop stop-color="#99D0BD"/>
      <stop offset=".08" stop-color="#72A7B3"/>
      <stop offset=".18" stop-color="#4C80A9"/>
      <stop offset=".26" stop-color="#3163A2"/>
      <stop offset=".34" stop-color="#20529E"/>
      <stop offset=".39" stop-color="#1B519B"/>
      <stop offset=".41" stop-color="#1E6299"/>
      <stop offset=".43" stop-color="#206D97"/>
      <stop offset=".45" stop-color="#227496"/>
      <stop offset=".53" stop-color="#227696"/>
    </radialGradient>
    <radialGradient id="m" cx="0" cy="0" r="1" gradientTransform="matrix(9.86477 -2.71964 2.67355 9.69761 68.323 4.432)" gradientUnits="userSpaceOnUse">
      <stop offset=".11" stop-color="#99D0BD" stop-opacity=".6"/>
      <stop offset=".74" stop-color="#227696"/>
      <stop offset=".82" stop-color="#206A98"/>
      <stop offset="1" stop-color="#1A4C9C"/>
    </radialGradient>
    <radialGradient id="n" cx="0" cy="0" r="1" gradientTransform="rotate(-15.413 74.165 -318.423) scale(10.7163 10.5347)" gradientUnits="userSpaceOnUse">
      <stop offset=".02" stop-color="#99D0BD"/>
      <stop offset=".64" stop-color="#34669A"/>
      <stop offset=".87" stop-color="#1A4C9C"/>
    </radialGradient>
    <radialGradient id="o" cx="0" cy="0" r="1" gradientTransform="matrix(10.82996 -2.98575 2.93517 10.6465 106.504 12.977)" gradientUnits="userSpaceOnUse">
      <stop offset=".45" stop-color="#227696"/>
      <stop offset=".6" stop-color="#206A98"/>
      <stop offset="1" stop-color="#1A4C9C"/>
    </radialGradient>
    <radialGradient id="p" cx="0" cy="0" r="1" gradientTransform="matrix(8.9198 -2.45912 2.41746 8.7687 110.446 29.592)" gradientUnits="userSpaceOnUse">
      <stop offset=".48" stop-color="#227696" stop-opacity=".9"/>
      <stop offset=".49" stop-color="#227596" stop-opacity=".9"/>
      <stop offset="1" stop-color="#1A4C9C"/>
    </radialGradient>
    <radialGradient id="q" cx="0" cy="0" r="1" gradientTransform="matrix(2.71571 -.7487 .73602 2.66971 98.515 2.995)" gradientUnits="userSpaceOnUse">
      <stop offset=".48" stop-color="#99D0BD"/>
      <stop offset=".56" stop-color="#7FBBB1"/>
      <stop offset=".8" stop-color="#347F8E"/>
      <stop offset=".91" stop-color="#166780"/>
    </radialGradient>
    <linearGradient id="a" x1="135.768" x2="138.684" y1="7.977" y2="9.057" gradientUnits="userSpaceOnUse">
      <stop stop-color="#fff"/>
      <stop offset="1"/>
    </linearGradient>
  </defs>
 </svg>