 <svg xmlns="http://www.w3.org/2000/svg" fill="none" width="995" height="610" viewBox="0 0 995 610">
  <path id="city-body" fill="#113449" 
  d="M0 608.614V331.408h16.01v-25.753h78.44v25.753h19.89v70.198h39.055v-28.184c-.197-26.509-.493-53.051-.657-79.592 0-13.14.296-26.279 0-39.418 0-5.453 3.813-5.223 7.265-5.256a491.18 491.18 0 0 1 26.07.23c3.945.164 5.688-.657 5.688-4.698 0-27.781-.854-55.743-.263-83.5 0-12.581 
  11.003-7.783 19.79-9.494 0-12.613.461-25.063 0-37.447-.723-14.88 1.25-28.348 16.175-36.79 5.359-3.022 3.288-7.49 3.288-11.596 0-5.551 0-11.3 9.172-10.413V14.355a48.34 48.34 0 0 1 .46-9.526c.362-1.741 2.203-3.285 3.288-4.829 1.545 1.708 4.109 3.285 4.471 5.157.4 3.886.455 7.8.164 
  11.694V54.66c9.435 1.314 11.736 6.57 8.909 20.366 20.646 9.033 20.613 26.279 19.199 44.247-.52 9.799-.366 22.644.46 32.421 19.298 0 19.298-2.582 19.298 8.263-.329 27.001 0 60.851 0 88.739h38.629v71.544h33.664c0-68.634-.098-137.26-.296-205.894 0-15.176.197-30.341.592-45.496 1.61-8.309 
  3.706-9.093 10.684-4.697 31.344 22.934 62.204 46.456 93.037 70.066 13.378 11.229 25.546 15.895 25.116 36.068-.709 28.717.435 57.454-.361 86.161 0 4.927 1.939 5.749 6.148 5.716h28.864v-34.393c0-27.647-1.494-55.745-.921-83.27 0-10.545 1.48-11.727 12.887-11.892.263-2.496.395-5.091.822-7.653.296-1.61.756-4.468 
  1.578-4.599 7.956-1.38 6.575-7.917 8.153-12.68 8.088-22.37 26.695-31.239 48.754-29.3 12.46 1.084 22.158 8.901 28.569 19.019 3.813 5.978 5.72 13.139 8.876 20.563 8.153-.164 6.772 7.128 7.167 13.139.493.395.855.953 1.282.986 11.342 1.412 11.572 1.379 11.539 13.139-.197 45.594-.624 91.22-.789 136.847 0 7.03.756
  14.059 1.283 22.994 11.013 0 22.157.197 33.236-.263 1.414 0 3.781-3.613 3.847-5.617.427-13.139.361-26.049.46-39.09 0-10.15.197-20.3.164-30.417 0-14.815-.197-29.564-.23-44.379 0-9.854.625-10.971 11.013-10.511 5.293.23 6.773-.493 6.575-5.683-.46-6.57-.411-9.953-.279-16.523-1.134-9.433 1.414-8.212 6.361-8.212 9.498.456 
  19.089.329 28.602.329 0-9.855 0-25.162.197-34.951a18.629 18.629 0 0 1 1.183-7.03c2.28-2.468 6.465-1.863 6.937 1.873 0 13.37-.427 26.735-.427 40.108 10.059 0 19.297.394 28.503 0 6.575-.362 7.396 2.989 7.396 7.653v22.042c1.94.328 3.913.755 5.918.985 10.98 1.314 10.914 1.314 10.816 11.694 0 72.847.361 145.694.361 
  218.541h28.043c0-16.26.296-32.126-.362-47.959 0-1.806-5.391-3.449-9.862-6.077l81.662-90.07L995 353.483c-12.394-1.216-12.46 4.27-12.361 11.891.46 32.618 0 65.237 0 97.888v144.133c0 5.037-888.419 1.219-982.639 1.219Z"/>
  <!-- Bulding 6-windows -->
  <rect width="18.443" height="27.111" x="863.566" y="362.207" fill="#C4C4C4"/>
  <rect width="18.443" height="27.111" x="863.566" y="396.909" fill="#C4C4C4"/>
  <rect width="18.443" height="27.111" x="863.566" y="431.611" fill="#C4C4C4"/>
  <rect width="18.443" height="27.111" x="863.566" y="467.398" fill="#C4C4C4"/>
  <rect width="18.443" height="27.111" x="890.688" y="362.207" fill="#C4C4C4"/>
  <rect width="18.443" height="27.111" x="890.688" y="396.909" fill="#C4C4C4"/>
  <rect width="18.443" height="27.111" x="890.688" y="431.611" fill="#C4C4C4"/>
  <rect width="18.443" height="27.111" x="890.688" y="467.398" fill="#C4C4C4"/>
  <rect width="18.443" height="27.111" x="917.81" y="362.207" fill="#C4C4C4"/>
  <rect width="18.443" height="27.111" x="944.932" y="362.207" fill="#C4C4C4"/>
  <rect width="18.443" height="27.111" x="917.81" y="396.909" fill="#C4C4C4"/>
  <rect width="18.443" height="27.111" x="944.932" y="396.909" fill="#C4C4C4"/>
  <rect width="18.443" height="27.111" x="917.81" y="431.611" fill="#C4C4C4"/>
  <rect width="18.443" height="27.111" x="944.932" y="431.611" fill="#C4C4C4"/>
  <rect width="18.443" height="27.111" x="917.81" y="467.398" fill="#C4C4C4"/>
  <rect width="18.443" height="27.111" x="944.932" y="467.398" fill="#C4C4C4"/>
  <!-- Bulding 5- windows -->
  <rect width="11.934" height="16.267" fill="#C4C4C4" transform="matrix(-1 0 0 1 737.719 194.115)"/>
  <rect width="11.934" height="16.267" fill="#C4C4C4" transform="matrix(-1 0 0 1 756.162 194.115)"/>
  <rect width="11.934" height="16.267" fill="#F5F5C9" transform="matrix(-1 0 0 1 774.605 194.115)"/>
  <rect width="11.934" height="16.267" fill="#C4C4C4" transform="matrix(-1 0 0 1 793.048 194.115)"/>
  <rect width="11.934" height="16.267" fill="#C4C4C4" transform="matrix(-1 0 0 1 737.719 216.889)"/>
  <rect width="11.934" height="16.267" fill="#C4C4C4" transform="matrix(-1 0 0 1 756.162 216.889)"/>
  <rect width="11.934" height="16.267" fill="#C4C4C4" transform="matrix(-1 0 0 1 774.605 216.889)"/>
  <rect width="11.934" height="16.267" fill="#C4C4C4" transform="matrix(-1 0 0 1 793.048 216.889)"/>
  <rect width="11.934" height="16.267" fill="#C4C4C4" transform="matrix(-1 0 0 1 737.719 239.662)"/>
  <rect width="11.934" height="16.267" fill="#C4C4C4" transform="matrix(-1 0 0 1 756.162 239.662)"/>
  <rect width="11.934" height="16.267" fill="#C4C4C4" transform="matrix(-1 0 0 1 774.605 239.662)"/>
  <rect width="11.934" height="16.267" fill="#C4C4C4" transform="matrix(-1 0 0 1 793.048 239.662)"/>
  <rect width="11.934" height="16.267" fill="#C4C4C4" transform="matrix(-1 0 0 1 737.719 262.437)"/>
  <rect width="11.934" height="16.267" fill="#F5F5C9" transform="matrix(-1 0 0 1 756.162 262.437)"/>
  <rect width="11.934" height="16.267" fill="#C4C4C4" transform="matrix(-1 0 0 1 774.605 262.437)"/>
  <rect width="11.934" height="16.267" fill="#C4C4C4" transform="matrix(-1 0 0 1 793.048 262.437)"/>
  <rect width="11.934" height="16.267" fill="#475F6E" transform="matrix(-1 0 0 1 737.719 285.209)"/>
  <rect width="11.934" height="16.267" fill="#C4C4C4" transform="matrix(-1 0 0 1 756.162 285.209)"/>
  <rect width="11.934" height="16.267" fill="#C4C4C4" transform="matrix(-1 0 0 1 793.048 285.209)"/>
  <rect width="11.934" height="16.267" fill="#C4C4C4" transform="matrix(-1 0 0 1 737.719 307.983)"/>
  <rect width="11.934" height="16.267" fill="#475F6E" transform="matrix(-1 0 0 1 756.162 307.983)"/>
  <rect width="11.934" height="16.267" fill="#C4C4C4" transform="matrix(-1 0 0 1 774.605 307.983)"/>
  <rect width="11.934" height="16.267" fill="#475F6E" transform="matrix(-1 0 0 1 793.048 307.983)"/>
  <rect width="11.934" height="16.267" fill="#5D6976" transform="matrix(-1 0 0 1 737.719 330.757)"/>
  <rect width="11.934" height="16.267" fill="#F5F5C9" transform="matrix(-1 0 0 1 756.162 330.757)"/>
  <rect width="11.934" height="16.267" fill="#C4C4C4" transform="matrix(-1 0 0 1 793.048 330.757)"/>
  <rect width="11.934" height="16.267" fill="#C4C4C4" transform="matrix(-1 0 0 1 737.719 355.699)"/>
  <rect width="11.934" height="16.267" fill="#C4C4C4" transform="matrix(-1 0 0 1 756.162 355.699)"/>
  <rect width="11.934" height="16.267" fill="#C4C4C4" transform="matrix(-1 0 0 1 774.605 355.699)"/>
  <rect width="11.934" height="16.267" fill="#C4C4C4" transform="matrix(-1 0 0 1 793.048 355.699)"/>
  <rect width="11.934" height="16.267" fill="#C4C4C4" transform="matrix(-1 0 0 1 737.719 378.473)"/>
  <rect width="11.934" height="16.267" fill="#C4C4C4" transform="matrix(-1 0 0 1 756.162 378.473)"/>
  <rect width="11.934" height="16.267" fill="#C4C4C4" transform="matrix(-1 0 0 1 774.605 378.473)"/>
  <rect width="11.934" height="16.267" fill="#C4C4C4" transform="matrix(-1 0 0 1 793.048 378.473)"/>
  <rect width="11.934" height="16.267" fill="#C4C4C4" transform="matrix(-1 0 0 1 737.719 401.245)"/>
  <rect width="11.934" height="16.267" fill="#C4C4C4" transform="matrix(-1 0 0 1 756.162 401.245)"/>
  <rect width="11.934" height="16.267" fill="#C4C4C4" transform="matrix(-1 0 0 1 774.605 401.245)"/>
  <rect width="11.934" height="16.267" fill="#C4C4C4" transform="matrix(-1 0 0 1 793.048 401.245)"/>
  <rect width="11.934" height="16.267" fill="#C4C4C4" transform="matrix(-1 0 0 1 737.719 424.019)"/>
  <rect width="11.934" height="16.267" fill="#B3B496" transform="matrix(-1 0 0 1 756.162 424.019)"/>
  <rect width="11.934" height="16.267" fill="#C4C4C4" transform="matrix(-1 0 0 1 774.605 424.019)"/>
  <rect width="11.934" height="16.267" fill="#C4C4C4" transform="matrix(-1 0 0 1 793.048 424.019)"/>
  <rect width="11.934" height="16.267" fill="#475F6E" transform="matrix(-1 0 0 1 737.719 446.793)"/>
  <rect width="11.934" height="16.267" fill="#C4C4C4" transform="matrix(-1 0 0 1 756.162 446.793)"/>
  <rect width="11.934" height="16.267" fill="#475F6E" transform="matrix(-1 0 0 1 774.605 446.793)"/>
  <rect width="11.934" height="16.267" fill="#C4C4C4" transform="matrix(-1 0 0 1 793.048 446.793)"/>
  <rect width="11.934" height="16.267" fill="#C4C4C4" transform="matrix(-1 0 0 1 756.162 469.567)"/>
  <rect width="11.934" height="16.267" fill="#F5F5C9" transform="matrix(-1 0 0 1 774.605 469.567)"/>
  <rect width="11.934" height="16.267" fill="#F5F5C9" transform="matrix(-1 0 0 1 793.048 469.567)"/>
  <rect width="11.934" height="16.267" fill="#C4C4C4" transform="matrix(-1 0 0 1 737.719 492.34)"/>
  <rect width="11.934" height="16.267" fill="#C4C4C4" transform="matrix(-1 0 0 1 756.162 492.34)"/>
  <rect width="11.934" height="16.267" fill="#C4C4C4" transform="matrix(-1 0 0 1 774.605 492.34)"/>
  <rect width="11.934" height="16.267" fill="#C4C4C4" transform="matrix(-1 0 0 1 793.048 492.34)"/>
  <!-- building 2 windows,  replace #F5F5C9 with variabel window-bright: hsl(60, 69%, 87%); -->
  <rect width="11.934" height="16.267" fill="#C4C4C4" transform="matrix(-1 0 0 1 221.317 189.781)"/>
  <rect width="11.934" height="16.267" fill="#C4C4C4" transform="matrix(-1 0 0 1 239.76 189.781)"/>
  <rect width="11.934" height="16.267" fill="#F5F5C9" transform="matrix(-1 0 0 1 258.203 189.781)"/>
  <rect width="11.934" height="16.267" fill="#C4C4C4" transform="matrix(-1 0 0 1 276.646 189.781)"/>
  <rect width="11.934" height="16.267" fill="#C4C4C4" transform="matrix(-1 0 0 1 221.317 212.553)"/>
  <rect width="11.934" height="16.267" fill="#C4C4C4" transform="matrix(-1 0 0 1 258.203 212.553)"/>
  <rect width="11.934" height="16.267" fill="#C4C4C4" transform="matrix(-1 0 0 1 221.317 235.327)"/>
  <rect width="11.934" height="16.267" fill="#C4C4C4" transform="matrix(-1 0 0 1 239.76 235.327)"/>
  <rect width="11.934" height="16.267" fill="#C4C4C4" transform="matrix(-1 0 0 1 258.203 235.327)"/>
  <rect width="11.934" height="16.267" fill="#C4C4C4" transform="matrix(-1 0 0 1 276.646 235.327)"/>
  <rect width="11.934" height="16.267" fill="#C4C4C4" transform="matrix(-1 0 0 1 221.317 258.101)"/>
  <rect width="11.934" height="16.267" fill="#C4C4C4" transform="matrix(-1 0 0 1 184.431 258.101)"/>
  <rect width="11.934" height="16.267" fill="#C4C4C4" transform="matrix(-1 0 0 1 184.431 304.732)"/>
  <rect width="11.934" height="16.267" fill="#C4C4C4" transform="matrix(-1 0 0 1 295.089 396.91)"/>
  <rect width="11.934" height="16.267" fill="#C4C4C4" transform="matrix(-1 0 0 1 295.089 442.458)"/>
  <rect width="11.934" height="16.267" fill="#C8C9B1" transform="matrix(-1 0 0 1 239.76 258.101)"/>
  <rect width="11.934" height="16.267" fill="#F5F5C9" transform="matrix(-1 0 0 1 202.874 258.101)"/>
  <rect width="11.934" height="16.267" fill="#F5F5C9" transform="matrix(-1 0 0 1 202.874 304.732)"/>
  <rect width="11.934" height="16.267" fill="#EDEEC1" transform="matrix(-1 0 0 1 313.532 396.91)"/>
  <rect width="11.934" height="16.267" fill="#D0D1A2" transform="matrix(-1 0 0 1 313.532 442.458)"/>
  <rect width="11.934" height="16.267" fill="#C4C4C4" transform="matrix(-1 0 0 1 258.203 258.101)"/>
  <rect width="11.934" height="16.267" fill="#C4C4C4" transform="matrix(-1 0 0 1 295.089 258.101)"/>
  <rect width="11.934" height="16.267" fill="#C4C4C4" transform="matrix(-1 0 0 1 295.089 303.648)"/>
  <rect width="11.934" height="16.267" fill="#C4C4C4" transform="matrix(-1 0 0 1 295.089 351.363)"/>
  <rect width="11.934" height="16.267" fill="#C4C4C4" transform="matrix(-1 0 0 1 295.089 280.874)"/>
  <rect width="11.934" height="16.267" fill="#C4C4C4" transform="matrix(-1 0 0 1 295.089 326.421)"/>
  <rect width="11.934" height="16.267" fill="#C4C4C4" transform="matrix(-1 0 0 1 295.089 374.137)"/>
  <rect width="11.934" height="16.267" fill="#C4C4C4" transform="matrix(-1 0 0 1 276.646 258.101)"/>
  <rect width="11.934" height="16.267" fill="#C4C4C4" transform="matrix(-1 0 0 1 313.532 258.101)"/>
  <rect width="11.934" height="16.267" fill="#C4C4C4" transform="matrix(-1 0 0 1 313.532 303.648)"/>
  <rect width="11.934" height="16.267" fill="#C4C4C4" transform="matrix(-1 0 0 1 313.532 351.363)"/>
  <rect width="11.934" height="16.267" fill="#C4C4C4" transform="matrix(-1 0 0 1 313.532 280.874)"/>
  <rect width="11.934" height="16.267" fill="#C4C4C4" transform="matrix(-1 0 0 1 313.532 326.421)"/>
  <rect width="11.934" height="16.267" fill="#C4C4C4" transform="matrix(-1 0 0 1 313.532 374.137)"/>
  <rect width="11.934" height="16.267" fill="#475F6E" transform="matrix(-1 0 0 1 221.317 280.874)"/>
  <rect width="11.934" height="16.267" fill="#5D6976" transform="matrix(-1 0 0 1 184.431 280.874)"/>
  <rect width="11.934" height="16.267" fill="#C4C4C4" transform="matrix(-1 0 0 1 184.431 327.505)"/>
  <rect width="11.934" height="16.267" fill="#475F6E" transform="matrix(-1 0 0 1 295.089 419.683)"/>
  <rect width="11.934" height="16.267" fill="#475F6E" transform="matrix(-1 0 0 1 295.089 465.23)"/>
  <rect width="11.934" height="16.267" fill="#C4C4C4" transform="matrix(-1 0 0 1 239.76 280.874)"/>
  <rect width="11.934" height="16.267" fill="#C4C4C4" transform="matrix(-1 0 0 1 202.874 280.874)"/>
  <rect width="11.934" height="16.267" fill="#C4C4C4" transform="matrix(-1 0 0 1 202.874 327.505)"/>
  <rect width="11.934" height="16.267" fill="#C4C4C4" transform="matrix(-1 0 0 1 313.532 419.683)"/>
  <rect width="11.934" height="16.267" fill="#C4C4C4" transform="matrix(-1 0 0 1 313.532 465.23)"/>
  <rect width="11.934" height="16.267" fill="#C4C4C4" transform="matrix(-1 0 0 1 276.646 280.874)"/>
  <rect width="11.934" height="16.267" fill="#C4C4C4" transform="matrix(-1 0 0 1 221.317 303.647)"/>
  <rect width="11.934" height="16.267" fill="#5D6976" transform="matrix(-1 0 0 1 239.76 303.647)"/>
  <rect width="11.934" height="16.267" fill="#C4C4C4" transform="matrix(-1 0 0 1 258.203 303.647)"/>
  <rect width="11.934" height="16.267" fill="#475F6E" transform="matrix(-1 0 0 1 276.646 303.647)"/>
  <rect width="11.934" height="16.267" fill="#C8C9B1" transform="matrix(-1 0 0 1 221.317 326.421)"/>
  <rect width="11.934" height="16.267" fill="#F5F5C9" transform="matrix(-1 0 0 1 239.76 326.421)"/>
  <rect width="11.934" height="16.267" fill="#475F6E" transform="matrix(-1 0 0 1 258.203 326.421)"/>
  <rect width="11.934" height="16.267" fill="#C4C4C4" transform="matrix(-1 0 0 1 276.646 326.421)"/>
  <rect width="11.934" height="16.267" fill="#C4C4C4" transform="matrix(-1 0 0 1 221.317 351.362)"/>
  <rect width="11.934" height="16.267" fill="#C4C4C4" transform="matrix(-1 0 0 1 184.431 351.362)"/>
  <rect width="11.934" height="16.267" fill="#C4C4C4" transform="matrix(-1 0 0 1 184.431 396.909)"/>
  <rect width="11.934" height="16.267" fill="#C4C4C4" transform="matrix(-1 0 0 1 184.431 374.135)"/>
  <rect width="11.934" height="16.267" fill="#C4C4C4" transform="matrix(-1 0 0 1 184.431 419.682)"/>
  <rect width="11.934" height="16.267" fill="#C4C4C4" transform="matrix(-1 0 0 1 184.431 464.145)"/>
  <rect width="11.934" height="16.267" fill="#C4C4C4" transform="matrix(-1 0 0 1 239.76 351.362)"/>
  <rect width="11.934" height="16.267" fill="#C4C4C4" transform="matrix(-1 0 0 1 202.874 351.362)"/>
  <rect width="11.934" height="16.267" fill="#C4C4C4" transform="matrix(-1 0 0 1 202.874 396.909)"/>
  <rect width="11.934" height="16.267" fill="#C4C4C4" transform="matrix(-1 0 0 1 202.874 374.135)"/>
  <rect width="11.934" height="16.267" fill="#C4C4C4" transform="matrix(-1 0 0 1 202.874 419.682)"/>
  <rect width="11.934" height="16.267" fill="#C4C4C4" transform="matrix(-1 0 0 1 202.874 464.145)"/>
  <rect width="11.934" height="16.267" fill="#C4C4C4" transform="matrix(-1 0 0 1 258.203 351.362)"/>
  <rect width="11.934" height="16.267" fill="#C4C4C4" transform="matrix(-1 0 0 1 276.646 351.362)"/>
  <rect width="11.934" height="16.267" fill="#C4C4C4" transform="matrix(-1 0 0 1 221.317 374.136)"/>
  <rect width="11.934" height="16.267" fill="#C4C4C4" transform="matrix(-1 0 0 1 239.76 374.136)"/>
  <rect width="11.934" height="16.267" fill="#C4C4C4" transform="matrix(-1 0 0 1 276.646 374.136)"/>
  <rect width="11.934" height="16.267" fill="#C4C4C4" transform="matrix(-1 0 0 1 221.317 396.91)"/>
  <rect width="11.934" height="16.267" fill="#C4C4C4" transform="matrix(-1 0 0 1 239.76 396.91)"/>
  <rect width="11.934" height="16.267" fill="#C4C4C4" transform="matrix(-1 0 0 1 258.203 396.91)"/>
  <rect width="11.934" height="16.267" fill="#C4C4C4" transform="matrix(-1 0 0 1 276.646 396.91)"/>
  <rect width="11.934" height="16.267" fill="#C4C4C4" transform="matrix(-1 0 0 1 221.317 419.683)"/>
  <rect width="11.934" height="16.267" fill="#B3B496" transform="matrix(-1 0 0 1 239.76 419.683)"/>
  <rect width="11.934" height="16.267" fill="#C4C4C4" transform="matrix(-1 0 0 1 258.203 419.683)"/>
  <rect width="11.934" height="16.267" fill="#C4C4C4" transform="matrix(-1 0 0 1 276.646 419.683)"/>
  <rect width="11.934" height="16.267" fill="#5D6976" transform="matrix(-1 0 0 1 221.317 442.456)"/>
  <rect width="11.934" height="16.267" fill="#C4C4C4" transform="matrix(-1 0 0 1 239.76 442.456)"/>
  <rect width="11.934" height="16.267" fill="#C4C4C4" transform="matrix(-1 0 0 1 258.203 442.456)"/>
  <rect width="11.934" height="16.267" fill="#C4C4C4" transform="matrix(-1 0 0 1 276.646 442.456)"/>
  <rect width="11.934" height="16.267" fill="#C4C4C4" transform="matrix(-1 0 0 1 239.76 465.229)"/>
  <rect width="11.934" height="16.267" fill="#C4C4C4" transform="matrix(-1 0 0 1 184.431 441.372)"/>
  <rect width="11.934" height="16.267" fill="#F5F5C9" transform="matrix(-1 0 0 1 258.203 465.229)"/>
  <rect width="11.934" height="16.267" fill="#F5F5C9" transform="matrix(-1 0 0 1 202.874 441.372)"/>
  <rect width="11.934" height="16.267" fill="#F5F5C9" transform="matrix(-1 0 0 1 276.646 465.229)"/>
  <rect width="11.934" height="16.267" fill="#C4C4C4" transform="matrix(-1 0 0 1 295.09 488.003)"/>
  <rect width="11.934" height="16.267" fill="#C4C4C4" transform="matrix(-1 0 0 1 313.533 488.003)"/>
  <rect width="11.934" height="16.267" fill="#5D6976" transform="matrix(-1 0 0 1 184.432 488.003)"/>
  <rect width="11.934" height="16.267" fill="#C4C4C4" transform="matrix(-1 0 0 1 202.875 488.003)"/>
  <rect width="11.934" height="16.267" fill="#C4C4C4" transform="matrix(-1 0 0 1 221.318 488.003)"/>
  <rect width="11.934" height="16.267" fill="#C4C4C4" transform="matrix(-1 0 0 1 239.761 488.003)"/>
  <rect width="11.934" height="16.267" fill="#C4C4C4" transform="matrix(-1 0 0 1 258.204 488.003)"/>
  <rect width="11.934" height="16.267" fill="#C4C4C4" transform="matrix(-1 0 0 1 276.647 488.003)"/>
  <rect width="11.934" height="16.267" fill="#C4C4C4" transform="matrix(-1 0 0 1 295.09 511.861)"/>
  <rect width="11.934" height="16.267" fill="#C4C4C4" transform="matrix(-1 0 0 1 313.533 511.861)"/>
  <rect width="11.934" height="16.267" fill="#5D6976" transform="matrix(-1 0 0 1 184.432 511.861)"/>
  <rect width="11.934" height="16.267" fill="#C4C4C4" transform="matrix(-1 0 0 1 202.875 511.861)"/>
  <rect width="11.934" height="16.267" fill="#C4C4C4" transform="matrix(-1 0 0 1 221.318 511.861)"/>
  <rect width="11.934" height="16.267" fill="#C4C4C4" transform="matrix(-1 0 0 1 239.761 511.861)"/>
  <rect width="11.934" height="16.267" fill="#C4C4C4" transform="matrix(-1 0 0 1 258.204 511.861)"/>
  <rect width="11.934" height="16.267" fill="#C4C4C4" transform="matrix(-1 0 0 1 276.647 511.861)"/>
  <rect width="11.934" height="28.196" fill="#C4C4C4" transform="matrix(-1 0 0 1 573.903 138.809)"/>
  <rect width="11.934" height="28.196" fill="#C4C4C4" transform="matrix(-1 0 0 1 592.346 138.809)"/>
  <rect width="11.934" height="28.196" fill="#C4C4C4" transform="matrix(-1 0 0 1 610.789 138.809)"/>
  <rect width="11.934" height="28.196" fill="#C4C4C4" transform="matrix(-1 0 0 1 629.232 138.809)"/>
  <!-- building2-tower windows -->
  <rect width="11.934" height="28.196" fill="#C4C4C4" transform="matrix(-1 0 0 1 232.165 152.907)"/>
  <rect width="11.934" height="28.196" fill="#C4C4C4" transform="matrix(-1 0 0 1 250.608 152.907)"/>
  <rect width="11.934" height="28.196" fill="#C4C4C4" transform="matrix(-1 0 0 1 269.051 152.907)"/>
  <!-- Bulding 4-windows -->
  <rect width="16.273" height="39.04" x="561.969" y="241.832" fill="#C4C4C4"/>
  <rect width="16.273" height="39.04" x="590.176" y="241.832" fill="#C4C4C4"/>
  <rect width="16.273" height="39.04" x="561.969" y="294.97" fill="#C4C4C4"/>
  <rect width="16.273" height="39.04" x="590.176" y="294.97" fill="#C4C4C4"/>
  <rect width="16.273" height="67.236" x="561.969" y="347.023" fill="#C4C4C4"/>
  <rect width="16.273" height="67.236" x="590.176" y="347.023" fill="#C4C4C4"/>
  <rect width="16.273" height="26.027" x="561.969" y="429.442" fill="#C4C4C4"/>
  <rect width="16.273" height="26.027" x="590.176" y="429.442" fill="#C4C4C4"/>
  <rect width="16.273" height="33.618" x="561.969" y="467.398" fill="#C4C4C4"/>
  <rect width="16.273" height="33.618" x="590.176" y="467.398" fill="#C4C4C4"/>
  <rect width="16.273" height="39.04" x="561.969" y="188.694" fill="#C4C4C4"/>
  <rect width="16.273" height="39.04" x="590.176" y="188.694" fill="#C4C4C4"/>
  <rect width="16.273" height="39.04" x="618.383" y="188.694" fill="#C4C4C4"/>
  <rect width="16.273" height="39.04" x="618.383" y="241.832" fill="#C4C4C4"/>
  <rect width="16.273" height="39.04" x="618.383" y="294.97" fill="#C4C4C4"/>
  <rect width="16.273" height="67.236" x="618.383" y="347.023" fill="#C4C4C4"/>
  <rect width="16.273" height="26.027" x="618.383" y="429.442" fill="#C4C4C4"/>
  <rect width="16.273" height="33.618" x="618.383" y="467.398" fill="#C4C4C4"/>
   <!-- Bulding 3-windows -->
  <rect width="16.412" height="16.405" x="387.302" y="158.331" fill="#B3B496"/>
  <rect width="16.412" height="16.405" x="440.053" y="158.331" fill="#B3B496"/>
  <rect width="16.412" height="16.405" x="413.678" y="158.331" fill="#B3B496"/>
  <rect width="16.412" height="16.405" x="466.429" y="158.331" fill="#B3B496"/>
  <rect width="16.412" height="16.405" x="387.302" y="347.025" fill="#B3B496"/>
  <rect width="16.412" height="16.405" x="440.053" y="347.025" fill="#B3B496"/>
  <rect width="16.412" height="16.405" x="413.678" y="347.025" fill="#B3B496"/>
  <rect width="16.412" height="16.405" x="466.429" y="347.025" fill="#B3B496"/>
  <rect width="16.412" height="16.405" x="387.302" y="221.229" fill="#B3B496"/>
  <rect width="16.412" height="16.405" x="440.053" y="221.229" fill="#B3B496"/>
  <rect width="16.412" height="16.405" x="413.678" y="221.229" fill="#B3B496"/>
  <rect width="16.412" height="16.405" x="466.429" y="221.229" fill="#B3B496"/>
  <rect width="16.412" height="16.405" x="387.302" y="409.923" fill="#B3B496"/>
  <rect width="16.412" height="16.405" x="440.053" y="409.923" fill="#B3B496"/>
  <rect width="16.412" height="16.405" x="413.678" y="409.923" fill="#B3B496"/>
  <rect width="16.412" height="16.405" x="466.429" y="409.923" fill="#B3B496"/>
  <rect width="16.412" height="16.405" x="387.302" y="284.127" fill="#B3B496"/>
  <rect width="16.412" height="16.405" x="440.053" y="284.127" fill="#B3B496"/>
  <rect width="16.412" height="16.405" x="413.678" y="284.127" fill="#B3B496"/>
  <rect width="16.412" height="16.405" x="466.429" y="284.127" fill="#B3B496"/>
  <rect width="16.412" height="16.405" x="387.302" y="472.821" fill="#B3B496"/>
  <rect width="16.412" height="16.405" x="440.053" y="472.821" fill="#B3B496"/>
  <rect width="16.412" height="16.405" x="413.678" y="472.821" fill="#B3B496"/>
  <rect width="16.412" height="16.405" x="466.429" y="472.821" fill="#B3B496"/>
  <rect width="16.412" height="16.405" x="387.302" y="189.781" fill="#B3B496"/>
  <rect width="16.412" height="16.405" x="440.053" y="189.781" fill="#B3B496"/>
  <rect width="16.412" height="16.405" x="413.678" y="189.781" fill="#B3B496"/>
  <rect width="16.412" height="16.405" x="466.429" y="189.781" fill="#B3B496"/>
  <rect width="16.412" height="16.405" x="387.302" y="378.474" fill="#B3B496"/>
  <rect width="16.412" height="16.405" x="440.053" y="378.474" fill="#B3B496"/>
  <rect width="16.412" height="16.405" x="413.678" y="378.474" fill="#B3B496"/>
  <rect width="16.412" height="16.405" x="466.429" y="378.474" fill="#B3B496"/>
  <rect width="16.412" height="16.405" x="387.302" y="252.678" fill="#B3B496"/>
  <rect width="16.412" height="16.405" x="440.053" y="252.678" fill="#B3B496"/>
  <rect width="16.412" height="16.405" x="413.678" y="252.678" fill="#B3B496"/>
  <rect width="16.412" height="16.405" x="466.429" y="252.678" fill="#B3B496"/>
  <rect width="16.412" height="16.405" x="387.302" y="441.372" fill="#B3B496"/>
  <rect width="16.412" height="16.405" x="440.053" y="441.372" fill="#B3B496"/>
  <rect width="16.412" height="16.405" x="413.678" y="441.372" fill="#B3B496"/>
  <rect width="16.412" height="16.405" x="466.429" y="441.372" fill="#B3B496"/>
  <rect width="16.412" height="16.405" x="387.302" y="315.576" fill="#B3B496"/>
  <rect width="16.412" height="16.405" x="440.053" y="315.576" fill="#B3B496"/>
  <rect width="16.412" height="16.405" x="413.678" y="315.576" fill="#B3B496"/>
  <rect width="16.412" height="16.405" x="466.429" y="315.576" fill="#B3B496"/>
  <rect width="16.412" height="16.405" x="387.302" y="504.271" fill="#B3B496"/>
  <rect width="16.412" height="16.405" x="440.053" y="504.271" fill="#B3B496"/>
  <rect width="16.412" height="16.405" x="413.678" y="504.271" fill="#B3B496"/>
  <rect width="16.412" height="16.405" x="466.429" y="504.271" fill="#B3B496"/>
   <!-- Bulding 1 - windows -->
  <rect width="12.645" height="7.964" x="20.613" y="344.855" fill="#C8C9B1"/>
  <rect width="12.645" height="7.964" x="61.257" y="344.855" fill="#C8C9B1"/>
  <rect width="12.645" height="7.964" x="40.936" y="344.855" fill="#C8C9B1"/>
  <rect width="12.645" height="7.964" x="81.58" y="344.855" fill="#C8C9B1"/>
  <rect width="12.645" height="7.964" x="20.613" y="436.461" fill="#C8C9B1"/>
  <rect width="12.645" height="7.964" x="61.257" y="436.461" fill="#C8C9B1"/>
  <rect width="12.645" height="7.964" x="40.936" y="436.461" fill="#C8C9B1"/>
  <rect width="12.645" height="7.964" x="81.58" y="436.461" fill="#C8C9B1"/>
  <rect width="12.645" height="7.964" x="20.613" y="375.39" fill="#C8C9B1"/>
  <rect width="12.645" height="7.964" x="61.257" y="375.39" fill="#C8C9B1"/>
  <rect width="12.645" height="7.964" x="40.936" y="375.39" fill="#C8C9B1"/>
  <rect width="12.645" height="7.964" x="81.58" y="375.39" fill="#C8C9B1"/>
  <rect width="12.645" height="7.964" x="20.613" y="466.997" fill="#C8C9B1"/>
  <rect width="12.645" height="7.964" x="61.257" y="466.997" fill="#C8C9B1"/>
  <rect width="12.645" height="7.964" x="40.936" y="466.997" fill="#C8C9B1"/>
  <rect width="12.645" height="7.964" x="81.58" y="466.997" fill="#C8C9B1"/>
  <rect width="12.645" height="7.964" x="20.613" y="405.926" fill="#C8C9B1"/>
  <rect width="12.645" height="7.964" x="61.257" y="405.926" fill="#C8C9B1"/>
  <rect width="12.645" height="7.964" x="40.936" y="405.926" fill="#C8C9B1"/>
  <rect width="12.645" height="7.964" x="81.58" y="405.926" fill="#C8C9B1"/>
  <rect width="12.645" height="7.964" x="20.613" y="497.53" fill="#C8C9B1"/>
  <rect width="12.645" height="7.964" x="61.257" y="497.53" fill="#C8C9B1"/>
  <rect width="12.645" height="7.964" x="40.936" y="497.53" fill="#C8C9B1"/>
  <rect width="12.645" height="7.964" x="81.58" y="497.53" fill="#C8C9B1"/>
  <rect width="12.645" height="7.964" x="20.613" y="360.123" fill="#C8C9B1"/>
  <rect width="12.645" height="7.964" x="61.257" y="360.123" fill="#C8C9B1"/>
  <rect width="12.645" height="7.964" x="40.936" y="360.123" fill="#C8C9B1"/>
  <rect width="12.645" height="7.964" x="81.58" y="360.123" fill="#C8C9B1"/>
  <rect width="12.645" height="7.964" x="20.613" y="451.728" fill="#C8C9B1"/>
  <rect width="12.645" height="7.964" x="61.257" y="451.728" fill="#C8C9B1"/>
  <rect width="12.645" height="7.964" x="40.936" y="451.728" fill="#C8C9B1"/>
  <rect width="12.645" height="7.964" x="81.58" y="451.728" fill="#C8C9B1"/>
  <rect width="12.645" height="7.964" x="20.613" y="390.657" fill="#C8C9B1"/>
  <rect width="12.645" height="7.964" x="61.257" y="390.657" fill="#C8C9B1"/>
  <rect width="12.645" height="7.964" x="40.936" y="390.657" fill="#C8C9B1"/>
  <rect width="12.645" height="7.964" x="81.58" y="390.657" fill="#C8C9B1"/>
  <rect width="12.645" height="7.964" x="20.613" y="482.263" fill="#C8C9B1"/>
  <rect width="12.645" height="7.964" x="61.257" y="482.263" fill="#C8C9B1"/>
  <rect width="12.645" height="7.964" x="40.936" y="482.263" fill="#C8C9B1"/>
  <rect width="12.645" height="7.964" x="81.58" y="482.263" fill="#C8C9B1"/>
  <rect width="12.645" height="7.964" x="20.613" y="421.194" fill="#C8C9B1"/>
  <rect width="12.645" height="7.964" x="61.257" y="421.194" fill="#C8C9B1"/>
  <rect width="12.645" height="7.964" x="40.936" y="421.194" fill="#C8C9B1"/>
  <rect width="12.645" height="7.964" x="81.58" y="421.194" fill="#C8C9B1"/>
  <rect width="12.645" height="7.964" x="20.613" y="512.8" fill="#C8C9B1"/>
  <rect width="12.645" height="7.964" x="61.257" y="512.8" fill="#C8C9B1"/>
  <rect width="12.645" height="7.964" x="40.936" y="512.8" fill="#C8C9B1"/>
  <rect width="12.645" height="7.964" x="81.58" y="512.8" fill="#C8C9B1"/>
 </svg>
