<svg width="960" height="1080" viewBox="0 0 960 1080" fill="none" xmlns="http://www.w3.org/2000/svg">
<path d="M555 0H960V1080L555 707.608V0Z" fill="#2D6589"/>
<path d="M652 252.375L829 343.205V959.556L652 795.64V252.375Z" fill="#1B3B60"/>
<path d="M689.605 401.851C689.605 401.851 685.003 408.112 741.873 409.266C741.873 409.266 791.674 408.277 792.661 400.532C792.661 400.532 716.232 398.39 689.605 401.851Z" fill="#E6E6E6"/>
<path d="M740.64 406.465C746.404 406.465 751.077 404.62 751.077 402.345C751.077 400.07 746.404 398.225 740.64 398.225C734.876 398.225 730.203 400.07 730.203 402.345C730.203 404.62 734.876 406.465 740.64 406.465Z" fill="url(#paint0_radial_60_17)"/>
<path d="M689.605 402.345C689.605 402.345 691.249 389.327 704.069 385.702C704.069 385.702 720.998 382.736 728.888 378.451C728.888 378.451 733.161 376.968 733.161 369.059C733.161 369.059 733.326 366.257 735.955 366.257H745.817C745.817 366.257 748.611 366.917 748.94 369.059C748.94 369.059 749.022 375.732 753.789 378.204C753.789 378.204 767.102 382.441 777.128 385.455C778.772 385.949 792.25 388.256 792.578 400.615C792.578 400.615 718.697 397.566 689.605 402.345Z" fill="#B3B3B3"/>
<path d="M741.872 298.037H739.242V366.257H741.872V298.037Z" fill="white"/>
<path d="M555.895 707.004H0V1079.5H960L555.895 707.004Z" fill="#083468"/>
<path d="M0 0V707.004H555.615V0H0ZM270.812 334.508H0.333102V131.904H270.812V334.508Z" fill="#1C3B60"/>
<defs>
<radialGradient id="paint0_radial_60_17" cx="0" cy="0" r="1" gradientUnits="userSpaceOnUse" gradientTransform="translate(740.64 402.17) scale(7.84995 8.57835)">
<stop offset="0.32" stop-color="white"/>
<stop offset="0.46" stop-color="#FFFFF5"/>
<stop offset="0.7" stop-color="#FFFFDA"/>
<stop offset="0.81" stop-color="#FFFFCC"/>
</radialGradient>
</defs>
</svg>
